<svg width="276" height="276" viewBox="0 0 276 276" fill="none" xmlns="http://www.w3.org/2000/svg">
<rect width="31.6562" height="31.6562" transform="matrix(-0.86601 0.500028 -3.18907e-05 1 137.545 74.207)" fill="#EE5007"/>
<rect width="31.6562" height="31.6562" transform="matrix(-0.86601 -0.500028 3.18907e-05 1 110.129 90.0391)" fill="#FF7442"/>
<rect width="31.6562" height="31.6562" transform="matrix(-0.866041 0.499972 0.866041 0.499972 110.129 58.3828)" fill="#FB9E70"/>
<rect width="31.6562" height="31.6562" transform="matrix(3.19859e-05 1 0.86601 0.500028 82.7109 105.871)" fill="#FF7442"/>
<rect width="31.6562" height="31.6562" transform="matrix(-0.866041 0.499973 0.866041 0.499972 82.7109 137.52)" fill="#FB9E70"/>
<rect width="31.6562" height="31.6562" transform="matrix(-3.17834e-05 1 0.866009 -0.500028 55.2969 121.695)" fill="#EE5007"/>
<rect width="31.6562" height="31.6562" transform="matrix(-0.86601 0.500028 -3.19781e-05 1 137.548 169.176)" fill="#EE5007"/>
<rect width="31.6562" height="31.6562" transform="matrix(-0.866009 -0.500028 3.18033e-05 1 110.132 185.008)" fill="#FF7442"/>
<rect width="31.6562" height="31.6562" transform="matrix(-0.866041 0.499972 0.866041 0.499973 110.132 153.352)" fill="#FB9E70"/>
<rect width="31.6562" height="31.6562" transform="matrix(0.86601 -0.500028 3.18907e-05 -1 137.541 200.852)" fill="#EE5007"/>
<rect width="31.6562" height="31.6562" transform="matrix(0.86601 0.500028 -3.18907e-05 -1 164.957 185.02)" fill="#FF7442"/>
<rect width="31.6562" height="31.6562" transform="matrix(0.866041 -0.499972 -0.866041 -0.499972 164.957 216.676)" fill="#FB9E70"/>
<rect width="31.6562" height="31.6562" transform="matrix(-0.86601 0.500028 -3.19781e-05 1 219.791 121.695)" fill="#EE5007"/>
<rect width="31.6562" height="31.6562" transform="matrix(-0.866009 -0.500028 3.18033e-05 1 192.374 137.527)" fill="#FF7442"/>
<rect width="31.6562" height="31.6562" transform="matrix(-0.866041 0.499972 0.866041 0.499973 192.374 105.871)" fill="#FB9E70"/>
<rect width="31.6562" height="31.6562" transform="matrix(0.86601 -0.500028 3.18907e-05 -1 137.543 105.883)" fill="#EE5007"/>
<rect width="31.6562" height="31.6562" transform="matrix(0.86601 0.500028 -3.18907e-05 -1 164.959 90.0508)" fill="#FF7442"/>
<rect width="31.6562" height="31.6562" transform="matrix(0.866041 -0.499972 -0.866041 -0.499972 164.959 121.707)" fill="#FB9E70"/>
</svg>
