<svg width="185" height="215" viewBox="0 0 185 215" fill="none" xmlns="http://www.w3.org/2000/svg">
<rect width="24.8171" height="24.8171" transform="matrix(-0.86601 0.500028 -3.18907e-05 1 92.53 12.4961)" fill="#AEAEAE"/>
<rect width="24.8171" height="24.8171" transform="matrix(-0.86601 -0.500028 3.18907e-05 1 71.0369 24.9062)" fill="#D6D6D6"/>
<rect width="24.8171" height="24.8171" transform="matrix(-0.866041 0.499972 0.866041 0.499972 71.0369 0.0898438)" fill="white"/>
<rect width="24.8171" height="24.8171" transform="matrix(3.19859e-05 1 0.86601 0.500028 49.542 37.3164)" fill="#D6D6D6"/>
<rect width="24.8171" height="24.8171" transform="matrix(-0.866041 0.499973 0.866041 0.499972 49.542 62.1289)" fill="white"/>
<rect width="24.8171" height="24.8171" transform="matrix(-3.17834e-05 1 0.866009 -0.500028 28.0509 49.7266)" fill="#AEAEAE"/>
<rect width="24.8171" height="24.8171" transform="matrix(-0.86601 0.500028 -3.19781e-05 1 92.5322 86.9492)" fill="#AEAEAE"/>
<rect width="24.8171" height="24.8171" transform="matrix(-0.866009 -0.500028 3.18033e-05 1 71.0391 99.3594)" fill="#D6D6D6"/>
<rect width="24.8171" height="24.8171" transform="matrix(-0.866041 0.499972 0.866041 0.499973 71.0391 74.543)" fill="white"/>
<rect width="24.8171" height="24.8171" transform="matrix(0.86601 -0.500028 3.18907e-05 -1 92.5267 111.777)" fill="#AEAEAE"/>
<rect width="24.8171" height="24.8171" transform="matrix(0.86601 0.500028 -3.18907e-05 -1 114.02 99.3672)" fill="#D6D6D6"/>
<rect width="24.8171" height="24.8171" transform="matrix(0.866041 -0.499972 -0.866041 -0.499972 114.02 124.184)" fill="white"/>
<rect width="24.8171" height="24.8171" transform="matrix(-0.86601 0.500028 -3.19781e-05 1 157.007 49.7227)" fill="#AEAEAE"/>
<rect width="24.8171" height="24.8171" transform="matrix(-0.866009 -0.500028 3.18033e-05 1 135.514 62.1328)" fill="#D6D6D6"/>
<rect width="24.8171" height="24.8171" transform="matrix(-0.866041 0.499972 0.866041 0.499973 135.514 37.3164)" fill="white"/>
<rect width="24.8171" height="24.8171" transform="matrix(0.86601 -0.500028 3.18907e-05 -1 92.5283 37.3242)" fill="#AEAEAE"/>
<rect width="24.8171" height="24.8171" transform="matrix(0.86601 0.500028 -3.18907e-05 -1 114.021 24.9141)" fill="#D6D6D6"/>
<rect width="24.8171" height="24.8171" transform="matrix(0.866041 -0.499972 -0.866041 -0.499972 114.021 49.7305)" fill="white"/>
<path d="M27.0016 206.973L12.4783 189.19V206.973H4.47337V167.062H12.4783V184.959L27.0016 167.062H36.6647L20.1974 186.846L37.1221 206.973H27.0016ZM40.329 191.02C40.329 187.818 40.958 184.978 42.2159 182.5C43.512 180.023 45.2464 178.117 47.4191 176.783C49.63 175.448 52.0887 174.781 54.7951 174.781C57.1585 174.781 59.2169 175.258 60.9704 176.211C62.762 177.164 64.1914 178.364 65.2587 179.813V175.296H73.3209V206.973H65.2587V202.341C64.2295 203.828 62.8001 205.067 60.9704 206.058C59.1788 207.011 57.1013 207.487 54.738 207.487C52.0696 207.487 49.63 206.801 47.4191 205.429C45.2464 204.057 43.512 202.132 42.2159 199.654C40.958 197.138 40.329 194.26 40.329 191.02ZM65.2587 191.134C65.2587 189.19 64.8776 187.532 64.1152 186.16C63.3528 184.749 62.3236 183.682 61.0276 182.958C59.7315 182.195 58.3402 181.814 56.8535 181.814C55.3669 181.814 53.9946 182.176 52.7367 182.901C51.4788 183.625 50.4496 184.692 49.6491 186.103C48.8867 187.475 48.5055 189.114 48.5055 191.02C48.5055 192.926 48.8867 194.603 49.6491 196.052C50.4496 197.462 51.4788 198.548 52.7367 199.311C54.0328 200.073 55.405 200.454 56.8535 200.454C58.3402 200.454 59.7315 200.092 61.0276 199.368C62.3236 198.606 63.3528 197.538 64.1152 196.166C64.8776 194.756 65.2587 193.078 65.2587 191.134ZM85.1988 171.522C83.7884 171.522 82.6067 171.084 81.6537 170.207C80.7389 169.292 80.2814 168.168 80.2814 166.834C80.2814 165.499 80.7389 164.394 81.6537 163.517C82.6067 162.602 83.7884 162.145 85.1988 162.145C86.6092 162.145 87.7718 162.602 88.6866 163.517C89.6396 164.394 90.1161 165.499 90.1161 166.834C90.1161 168.168 89.6396 169.292 88.6866 170.207C87.7718 171.084 86.6092 171.522 85.1988 171.522ZM89.1441 175.296V206.973H81.1391V175.296H89.1441ZM105.058 180.213C106.087 178.536 107.421 177.221 109.06 176.268C110.738 175.315 112.644 174.838 114.778 174.838V183.244H112.663C110.147 183.244 108.241 183.835 106.945 185.016C105.687 186.198 105.058 188.256 105.058 191.191V206.973H97.053V175.296H105.058V180.213ZM134.236 207.487C131.186 207.487 128.442 206.82 126.002 205.486C123.563 204.114 121.638 202.189 120.227 199.711C118.855 197.233 118.169 194.374 118.169 191.134C118.169 187.894 118.874 185.035 120.284 182.558C121.733 180.08 123.696 178.174 126.174 176.84C128.651 175.467 131.415 174.781 134.465 174.781C137.514 174.781 140.278 175.467 142.755 176.84C145.233 178.174 147.177 180.08 148.588 182.558C150.036 185.035 150.76 187.894 150.76 191.134C150.76 194.374 150.017 197.233 148.53 199.711C147.082 202.189 145.1 204.114 142.584 205.486C140.106 206.82 137.323 207.487 134.236 207.487ZM134.236 200.512C135.684 200.512 137.038 200.168 138.295 199.482C139.591 198.758 140.621 197.691 141.383 196.28C142.145 194.87 142.527 193.155 142.527 191.134C142.527 188.123 141.726 185.817 140.125 184.216C138.562 182.577 136.637 181.757 134.35 181.757C132.063 181.757 130.138 182.577 128.575 184.216C127.05 185.817 126.288 188.123 126.288 191.134C126.288 194.146 127.031 196.471 128.518 198.11C130.043 199.711 131.949 200.512 134.236 200.512ZM168.754 207.487C166.162 207.487 163.837 207.03 161.778 206.115C159.72 205.162 158.081 203.885 156.861 202.284C155.679 200.683 155.031 198.911 154.917 196.966H162.979C163.131 198.186 163.722 199.196 164.752 199.997C165.819 200.797 167.134 201.198 168.697 201.198C170.222 201.198 171.403 200.893 172.242 200.283C173.119 199.673 173.557 198.891 173.557 197.938C173.557 196.909 173.023 196.147 171.956 195.651C170.927 195.118 169.269 194.546 166.981 193.936C164.618 193.364 162.674 192.773 161.149 192.163C159.663 191.554 158.367 190.62 157.261 189.362C156.194 188.104 155.66 186.408 155.66 184.273C155.66 182.519 156.156 180.918 157.147 179.47C158.176 178.021 159.625 176.878 161.492 176.039C163.398 175.201 165.628 174.781 168.182 174.781C171.956 174.781 174.967 175.734 177.216 177.64C179.465 179.508 180.704 182.043 180.933 185.245H173.271C173.157 183.987 172.623 182.996 171.67 182.272C170.755 181.509 169.516 181.128 167.954 181.128C166.505 181.128 165.381 181.395 164.58 181.929C163.818 182.462 163.436 183.206 163.436 184.159C163.436 185.226 163.97 186.045 165.037 186.617C166.105 187.151 167.763 187.704 170.012 188.275C172.299 188.847 174.186 189.438 175.673 190.048C177.159 190.658 178.436 191.611 179.504 192.907C180.609 194.165 181.181 195.842 181.219 197.938C181.219 199.768 180.704 201.407 179.675 202.856C178.684 204.304 177.235 205.448 175.33 206.287C173.462 207.087 171.27 207.487 168.754 207.487Z" fill="white"/>
</svg>
