<?xml version="1.0" encoding="UTF-8"?>
<svg id="Layer_2" data-name="Layer 2" xmlns="http://www.w3.org/2000/svg" xmlns:xlink="http://www.w3.org/1999/xlink" viewBox="0 0 204.86 228.49">
  <defs>
    <style>
      .cls-1 {
        fill: url(#linear-gradient);
      }

      .cls-2 {
        fill: #ee5007;
      }

      .cls-3 {
        fill: #fff;
      }

      .cls-4 {
        fill: #fb9e70;
      }

      .cls-5 {
        fill: #0c0b0b;
      }

      .cls-6 {
        fill: url(#New_Gradient_Swatch_2);
      }

      .cls-7 {
        fill: url(#linear-gradient-8);
      }

      .cls-8 {
        fill: url(#linear-gradient-9);
      }

      .cls-9 {
        fill: url(#linear-gradient-3);
      }

      .cls-10 {
        fill: url(#linear-gradient-4);
      }

      .cls-11 {
        fill: url(#linear-gradient-2);
      }

      .cls-12 {
        fill: url(#linear-gradient-6);
      }

      .cls-13 {
        fill: url(#linear-gradient-7);
      }

      .cls-14 {
        fill: url(#linear-gradient-5);
      }

      .cls-15 {
        fill: url(#linear-gradient-14);
      }

      .cls-16 {
        fill: url(#linear-gradient-15);
      }

      .cls-17 {
        fill: url(#linear-gradient-16);
      }

      .cls-18 {
        fill: url(#linear-gradient-17);
      }

      .cls-19 {
        fill: url(#linear-gradient-13);
      }

      .cls-20 {
        fill: url(#linear-gradient-12);
      }

      .cls-21 {
        fill: url(#linear-gradient-10);
      }

      .cls-22 {
        fill: url(#linear-gradient-11);
      }

      .cls-23 {
        fill: url(#New_Gradient_Swatch_2-2);
      }

      .cls-24 {
        fill: url(#New_Gradient_Swatch_2-3);
      }
    </style>
    <linearGradient id="linear-gradient" x1="56.74" y1="109.92" x2="110.49" y2="109.92" gradientUnits="userSpaceOnUse">
      <stop offset="0" stop-color="#ee5007"/>
      <stop offset=".54" stop-color="#ff7442"/>
      <stop offset=".99" stop-color="#fb9e70"/>
    </linearGradient>
    <linearGradient id="linear-gradient-2" x1="141.29" y1="-2402.63" x2="157.43" y2="-2402.63" gradientTransform="translate(0 -2209.98) scale(1 -1)" xlink:href="#linear-gradient"/>
    <linearGradient id="linear-gradient-3" x1="114.16" y1="-2401.72" x2="143.38" y2="-2401.72" gradientTransform="translate(0 -2209.98) scale(1 -1)" xlink:href="#linear-gradient"/>
    <linearGradient id="linear-gradient-4" x1="159.1" y1="-2393.91" x2="180.13" y2="-2393.91" gradientTransform="translate(0 -2209.98) scale(1 -1)" xlink:href="#linear-gradient"/>
    <linearGradient id="linear-gradient-5" x1="150.97" y1="-2399.11" x2="169.17" y2="-2399.11" gradientTransform="translate(0 -2209.98) scale(1 -1)" xlink:href="#linear-gradient"/>
    <linearGradient id="linear-gradient-6" x1="39.54" y1="189.74" x2="129.38" y2="189.74" gradientUnits="userSpaceOnUse">
      <stop offset=".01" stop-color="#fb9e70"/>
      <stop offset=".46" stop-color="#ff7442"/>
      <stop offset="1" stop-color="#ee5007"/>
    </linearGradient>
    <linearGradient id="linear-gradient-7" x1="197.39" y1="-2346.31" x2="204.85" y2="-2346.31" gradientTransform="translate(0 -2209.98) scale(1 -1)" xlink:href="#linear-gradient"/>
    <linearGradient id="linear-gradient-8" x1="183.33" y1="-2374.34" x2="198.4" y2="-2374.34" gradientTransform="translate(0 -2209.98) scale(1 -1)" xlink:href="#linear-gradient"/>
    <linearGradient id="linear-gradient-9" x1="170.97" y1="-2384.95" x2="191.31" y2="-2384.95" gradientTransform="translate(0 -2209.98) scale(1 -1)" xlink:href="#linear-gradient"/>
    <linearGradient id="linear-gradient-10" x1="191.43" y1="-2362.75" x2="202.43" y2="-2362.75" gradientTransform="translate(0 -2209.98) scale(1 -1)" xlink:href="#linear-gradient"/>
    <linearGradient id="linear-gradient-11" x1="3.15" y1="168.09" x2="61.28" y2="168.09" xlink:href="#linear-gradient-6"/>
    <linearGradient id="linear-gradient-12" x1="112.18" y1="88.23" x2="113.65" y2="88.23" xlink:href="#linear-gradient"/>
    <linearGradient id="linear-gradient-13" x1="0" y1="-2317.77" x2="62.85" y2="-2317.77" gradientTransform="translate(0 -2209.98) scale(1 -1)" xlink:href="#linear-gradient-6"/>
    <linearGradient id="linear-gradient-14" x1="-1.27" y1="-2299.02" x2="62.94" y2="-2299.02" gradientTransform="translate(0 -2209.98) scale(1 -1)" xlink:href="#linear-gradient-6"/>
    <linearGradient id="New_Gradient_Swatch_2" data-name="New Gradient Swatch 2" x1="92.83" y1="161.11" x2="121.28" y2="161.11" gradientUnits="userSpaceOnUse">
      <stop offset="0" stop-color="#ee5007"/>
      <stop offset=".54" stop-color="#ff7442"/>
      <stop offset=".99" stop-color="#fb9e70"/>
    </linearGradient>
    <linearGradient id="New_Gradient_Swatch_2-2" data-name="New Gradient Swatch 2" x1="1196.78" y1="173.6" x2="1218.06" y2="173.6" gradientTransform="translate(223.9 1221.06) rotate(-90) scale(1 -1)" xlink:href="#New_Gradient_Swatch_2"/>
    <linearGradient id="New_Gradient_Swatch_2-3" data-name="New Gradient Swatch 2" x1="1238.48" y1="173.6" x2="1266.84" y2="173.6" gradientTransform="translate(-153.34 -1205.2) rotate(90) scale(1 -1)" xlink:href="#New_Gradient_Swatch_2"/>
    <linearGradient id="linear-gradient-15" x1="104.73" y1="71.07" x2="155.5" y2="71.07" xlink:href="#linear-gradient"/>
    <linearGradient id="linear-gradient-16" x1="12.68" y1="123.1" x2="193.46" y2="123.1" gradientUnits="userSpaceOnUse">
      <stop offset="0" stop-color="#fb9e70"/>
      <stop offset=".68" stop-color="#ff7442"/>
      <stop offset=".75" stop-color="#fd703c"/>
      <stop offset=".85" stop-color="#f9672d"/>
      <stop offset=".95" stop-color="#f25815"/>
      <stop offset="1" stop-color="#ee5007"/>
    </linearGradient>
    <linearGradient id="linear-gradient-17" x1="44.34" y1="97.59" x2="94.97" y2="97.59" xlink:href="#linear-gradient-16"/>
  </defs>
  <g id="Layer_2-2" data-name="Layer 2">
    <g>
      <path class="cls-1" d="M108.9,93.11c-.59,.05-1.89,.72-4.21,1.79l-5.29,2.43s-.39-.11-.44-.22c-.4-.94,3.5-2.23,5.39-3.26,1.56-.92,3.46-1.42,4.82-2.63,.44-.39,1.61-1.5,1.24-2.99-.09-.42-.21-.14-.32-.12-3.14,2.17-8.8,3.29-11.42,4.1-.38,.1-.62-.48-.26-.66,3.49-1.9,12.26-3.59,10.8-5.15q-.47-.5-.71-.74c-.19-.18-.45-.28-.72-.27-1.54,.08-3.05,.3-4.53,.75-2.21,.53-4.27,1.59-6.26,2.63-8.02,4.18-10.34,9.5-16.52,15.93-.05-.04-.1-.08,0,0-.81,.81-1.64,1.58-2.48,2.25-10.53,8.44-18.09-2.56-19.92-3.39-.91-.41-1.82,8.08-1.02,13.55,3.07,21.09,7.23,17.66,10.39,16.11,1.1-.54,2.94-1.44,4.8-3.42,1.42-1.51,2.58-3.37,3.72-5.08,6.12-12.84,20.92-10.83,27.52-23.48l1.48-2.63c.65-.62,1.43-1.28,1.63-1.49,2.19-2.27,3.25-2.43,3.17-3.53-.03-.41-.44-.53-.85-.5Z"/>
      <path class="cls-11" d="M149.44,179.56c-1.49,.14-2.97,.07-4.46-.14-5.34,9.06-5.07,19.46,2.43,26.43,3.45-1.01,6.83-2.16,10.07-3.58-7.5-4.46-11.56-14.53-8.04-22.71Z"/>
      <path class="cls-9" d="M140.44,180.19c.18-.46,.14-.76,.14-.76,0,0-11.4,.06-15.25-3.92h0s0,0,0,0c0,.13,.02,.27,.03,.4,.04,.78,.05,1.56,.05,2.37-.02,7.58-3.02,14.7-11.23,17.03,3.65,5.27,8.58,8.11,14.06,10.21-2.57-5.61-1.96-12.3,.68-18.18,.2-.41,.95-.14,.74,.34-2.91,7.16-1.16,14.07,3.23,19.75,.15,.05,.3,.09,.46,.13,2.07,.52,4.23,.53,6.33,.13,1.26-.24,2.52-.52,3.77-.81-5.91-6.92-7.92-14.23-2.98-26.68Z"/>
      <path class="cls-10" d="M172.08,182.6c-2.03-2.57-3.45-5.68-3.45-8.72-3.11,1.35-6.29,2.43-9.53,3.31,.88,4.6,1.82,9.19,5.54,12.57,2.43,2.23,5,3.51,7.7,4.19,2.7-1.89,5.27-3.92,7.7-6.15-3.04-.95-5.88-2.64-7.98-5.2Z"/>
      <path class="cls-14" d="M157.01,177.87c-1.89,.68-3.78,1.22-5.68,1.49-.27,4.66-.95,9.39,1.55,13.72,2.1,3.65,4.87,6.15,8.58,7.3,2.64-1.28,5.27-2.77,7.77-4.39-7.5-3.18-13.45-10.21-12.23-18.11Z"/>
      <path class="cls-12" d="M108.19,193.45c-2.1-8.99-1.95-20.01-9.26-26.76-4.94-4.56-9.27-2.15-21.83-8.88-3.65-1.41-9.33-6.89-9.51-6.71-.02,.02-.02,.05-.03,.08-.84-.57-1.39,.16-2.93,1.38-3.48,2.76-12.89,13.89-17.79,23.69-2.97,5.95-7.37,23.35-7.3,38.42,8.09,7.35,25.95,13.17,35.83,13.71,18.71,1.03,41.49-5.27,54-16.82-9.12-2.91-18.95-8.58-21.18-18.11Z"/>
      <path class="cls-13" d="M204.86,127.93c0-1.55-2.57-1.96-2.77-.41-.88,5.88-2.43,11.42-4.66,16.63,1.76,1.08,3.65,1.69,5.61,1.96,1.15-6.02,1.76-12.1,1.82-18.18Z"/>
      <path class="cls-7" d="M190.33,156.38c-2.1,2.77-4.39,5.41-7.03,7.84,2.03,3.99,5.47,6.96,9.66,8.11,2.1-3.45,3.85-7.03,5.41-10.68-3.18-1.01-6.15-2.64-8.04-5.27Z"/>
      <path class="cls-8" d="M181.94,165.44c-3.38,2.97-7.1,5.41-10.95,7.3,.14,6.96,5.88,10.61,12.5,11.76,2.91-2.97,5.54-6.22,7.84-9.6-4.39-1.62-7.84-5.07-9.39-9.46Z"/>
      <path class="cls-21" d="M191.41,154.89c1.96,2.43,4.8,3.65,7.91,4.33,1.28-3.38,2.3-6.89,3.11-10.41-2.16-.41-4.26-1.22-6.02-2.5-1.42,2.97-3.04,5.81-5,8.58Z"/>
      <path class="cls-22" d="M31.83,208.12c1.47,.41,2.94-.69,2.92-2.22-.13-8.41,1.99-15.91,4.93-24.17,2.23-6.15,5-12.37,8.99-17.64,2.43-3.24,11.08-10.75,12.37-16.69-.07-.34,0-.74,.14-1.01l.07-.74c.24-2.63-2.78-15.54-6.08-17.65-.03,.18,.03,.4,0,0-.61,.27,0,0,0,0-20.01-.59-40.14,8.75-51.11,24.22-.6,.85-.94,1.87-1,2.91-.16,2.62,.61,8.29,1.13,10.56,4.58,19.94,19,40.02,27.66,42.43Z"/>
      <g>
        <polygon class="cls-3" points="112.6 88.23 112.6 88.23 112.6 88.23 112.6 88.23"/>
        <path class="cls-3" d="M116.75,149.6s-.05,.01-.08,.02c.03,0,.05-.01,.08-.02Z"/>
        <polygon class="cls-3" points="112.6 88.23 112.6 88.23 112.6 88.23 112.6 88.23"/>
        <polygon class="cls-20" points="112.6 88.23 112.6 88.23 112.6 88.23 112.6 88.23"/>
        <path class="cls-19" d="M57.8,87.65c-2.85-1.61-5.79-3.73-8.51-6.13-2.97-2.62-4.1-4.76-6.08-7.58-.93-1.32-1.75-2.66-2.46-4.01-1.73,1.22-4.91,3.71-5.14,3.89-12.01,8.94-24.22,20.67-30.35,33.68-4.39,9.23-7.26,23.33-3.56,36.98,.35,1.3,2,1.57,2.87,.55,8.59-10.08,17.33-15.58,31.64-19.32,2.58-.67,9.63-1.53,11.15-1.66,4.24-.39,5.85,.09,4.97-5.38-.81-4.8-.57-8.35,.03-13.22,.7-5.52,2.58-10.71,5.31-15.44,.34-.76,.67-1.44,.93-1.91-.27-.15-.54-.27-.82-.43Z"/>
        <path class="cls-3" d="M58.62,88.08c-.26,.47-.59,1.15-.93,1.91,.35-.61,.72-1.22,1.1-1.82-.06-.03-.11-.06-.17-.09Z"/>
        <path class="cls-15" d="M58.62,88.08c-.26,.47-.59,1.15-.93,1.91,.35-.61,.72-1.22,1.1-1.82-.06-.03-.11-.06-.17-.09Z"/>
      </g>
      <path class="cls-6" d="M116.33,155.4c.34-3.37-.35-7.33-2.19-11.18-2.37-4.97-6.09-8.57-9.82-10.03-.9-.35-1.79,.55-1.47,1.46l4.08,10.01-6.49-11.49c-.26-.42-.76-.63-1.24-.52-1.04,.23-2.06,.72-2.93,1.4-.39,.31-.54,.83-.38,1.3l4.94,12.42-5.31-9.62c-.51-.82-1.77-.7-2.06,.22-1.21,3.82-.73,8.97,1.64,13.94,2.02,4.23,5.01,7.46,8.16,9.23,1.87,1.99,3.48,4.21,4.75,6.87,2.84,5.98,2.22,13.13,4.87,19.17,.06-.06,.12-.06,.18-.12,14.93-4.41,5.33-23.1,3.26-33.07Z"/>
      <path class="cls-1" d="M108.9,93.11c-.59,.05-1.89,.72-4.21,1.79l-5.29,2.43s-.39-.11-.44-.22c-.4-.94,3.5-2.23,5.39-3.26,1.56-.92,3.46-1.42,4.82-2.63,.44-.39,1.61-1.5,1.24-2.99-.09-.42-.21-.14-.32-.12-3.14,2.17-8.8,3.29-11.42,4.1-.38,.1-.62-.48-.26-.66,3.49-1.9,12.26-3.59,10.8-5.15q-.47-.5-.71-.74c-.19-.18-.45-.28-.72-.27-1.54,.08-3.05,.3-4.53,.75-2.21,.53-4.27,1.59-6.26,2.63-8.02,4.18-10.34,9.5-16.52,15.93-.05-.04-.1-.08,0,0-.81,.81-1.64,1.58-2.48,2.25-10.53,8.44-18.09-2.56-19.92-3.39-.91-.41-1.82,8.08-1.02,13.55,3.07,21.09,7.23,17.66,10.39,16.11,1.1-.54,2.94-1.44,4.8-3.42,1.42-1.51,2.58-3.37,3.72-5.08,6.12-12.84,20.92-10.83,27.52-23.48l1.48-2.63c.65-.62,1.43-1.28,1.63-1.49,2.19-2.27,3.25-2.43,3.17-3.53-.03-.41-.44-.53-.85-.5Z"/>
      <g>
        <path class="cls-2" d="M43.44,43.93c-.09,.49-.13,.96-.15,1.42-.1,3.07,1.29,5.99,3.52,8.09,1.32,1.25,3.19,2.69,5.46,3.58,4.67,1.84,8.06,.35,8.06,.35,0,0,2.51-.84,4.31-2.63s4.42-4.95,4.42-4.95c0,0,1.8-2.41,5.61-4.56,3.81-2.14,7.81-2.46,7.81-2.46,2.78-.49,7.07,.35,11.59,.83,5.01,.53,7.84-.87,7.84-.87,10.14-4.16,16.08-11.68,16.08-11.68-1.88,.06-10.41-2.58-17.88-4.22-4.29-.94-13.78-4.34-25.11-4.41,0,0-27.65-.33-31.57,21.49Z"/>
        <path class="cls-4" d="M48.86,74.53c-1.82-2.19-4.86-7.64-5.77-11.99-.69-3.3-1.01-6.86-.86-9.06,.71,1.23,3.34,5.21,8.58,7.27,5.56,2.19,9.88,.78,10.93,.37,.7-.25,3.52-1.35,5.72-3.54,.63-.62,1.39-1.44,2.27-2.43,1.29-1.45,2.4-2.79,2.4-2.79,0,0,.13-.16,.13-.16,0,0,.07-.09,.17-.19,.48-.55,1.86-1.95,4.2-3.27,2.94-1.66,6.15-1.96,6.19-1.96h.17s.19-.05,.19-.05c1.48-.26,4.3,.1,7.02,.45,1.12,.14,2.28,.29,3.45,.42,5.46,.58,8.98-.78,9.86-1.18,.16-.06,.3-.13,.46-.2,2.28-.76,4.8-1.95,7.28-3.81,.54-.4,1.04-.8,1.54-1.19,3.74-2.7,6.33-5.36,7.59-6.77h0c.5-.57,.76-.9,.76-.9l1.29-1.65c1.95,.97,3.28,4.62,3.28,4.62,2.14,6.25,.75,9.62-1.6,16.21-2.34,6.59-8.61,9.27-12.2,11.19-3.59,1.92-5.67,4.24-11.1,9.67-5.43,5.43-10.13,9.04-10.13,9.04-14.23,10.54-27.05,3.04-31.25,.87-2.67-1.38-8.25-6.16-10.57-8.96Z"/>
        <path id="left_ear" data-name="left ear" class="cls-23" d="M43.01,3h3.08c8.19,0,14.85,6.65,14.85,14.85v3.08c0,1.85-1.5,3.35-3.35,3.35h-3.08c-8.19,0-14.85-6.65-14.85-14.85v-3.08c0-1.85,1.5-3.35,3.35-3.35Z" transform="translate(78.85 57.25) rotate(-138.38)"/>
        <path id="nouse" class="cls-5" d="M124.85,34.6c.76,1.34,.5,2.57-.67,3.57-1.17,1-2.72,1.1-3.99,1.13-.48,.01-1.26-.24-1.68-.48-1.23-.69-.86-1.76-.43-2.37,.7-.99,2.1-1.8,2.21-3.01,.08-.91,.31-2.17,1.22-2.12,.38,.02,.88,.4,1.39,.76,.69,.5,1.39,1.49,1.96,2.51Z"/>
        <path id="mouth" class="cls-5" d="M121.72,44.92c-.81,.2-1.75,.33-2.82,.44-1.65,.17,6.85,2.72,7.53,.02,.24-.93,.39-2.33,.33-3.2-1.44,1.31-3.16,2.26-5.04,2.74Z"/>
        <path id="right_ear" data-name="right ear" class="cls-24" d="M25.86,33.28h4.11c2.46,0,4.46,2,4.46,4.46v4.11c0,10.92-8.87,19.79-19.79,19.79h-4.11c-2.46,0-4.46-2-4.46-4.46v-4.11c0-10.92,8.87-19.79,19.79-19.79Z" transform="translate(36.64 -1.47) rotate(41.62)"/>
        <g id="eye">
          <path class="cls-5" d="M76.76,64.01c3.26,2.71,8.18,2.58,11.06-.65,2.87-3.23,2.58-8.18-.65-11.06s-8.05-2.46-11.06,.65c-1.04,1.07-3.45,3.84-3.33,5.84,.12,2,2.32,3.84,3.99,5.22Z"/>
          <circle class="cls-3" cx="81.56" cy="55.82" r="3.92"/>
          <circle class="cls-3" cx="82.12" cy="62.32" r="1.97"/>
        </g>
      </g>
      <path class="cls-16" d="M153.97,58.09l-11.86,9.43,11.95-12.04c.28-.33,.33-.8,.11-1.17-.46-.81-1.13-1.54-1.93-2.09-.36-.25-.83-.24-1.18,.02l-12.37,10.36,9.67-10.58c.55-.64,.12-1.66-.72-1.66-3.5-.03-7.41,2.35-10.94,5.61-1.96,1.81-3.67,3.76-4.94,5.69-4.28,5.37-5.01,9.21-11.29,12.58-.43,.22-.88,.42-1.34,.6,0,0,0,0,0,0,1.92,1.92,6.89,8.91,8.92,16.17,.2,.73,1.05,1,1.69,.61,1.86-1.13,3.93-3.03,4.98-5.46,1.62-3.72,.73-4.37,2.35-8.09,0-.05,.03-.06,.05-.06,.34,.05,.7,.06,1.06-.03,2.82-.63,8.38-6.02,11.02-8.46,3.53-3.26,6.11-7.08,6.36-10.57,.06-.84-.92-1.35-1.6-.85Z"/>
      <g>
        <path class="cls-17" d="M171.36,109.69c-.2-.07-.4-.14-.65-.16-11.7,14.35-10.2,6.96-1.03-1.89,.26-.25,.43-.6,.43-.96,0-.88-.37-1.93-.98-2.66-.65-.78-1.84-.77-2.58-.07-1.52,1.45-5.65,4.52-6.65,5.89s.42-2.02,1.37-3.46c1.29-1.96,2.93-3.74,4.67-5.34,.58-.53,.62-1.45,.03-1.97-3.83-3.41-12.61,8.41-14.14,11.33-4.67,7.3-7.39,15.72-8.99,24.19,.01,.01,.02,.03,.03,.04-.21,1.35-.22,3.34-.13,5.02,.05,1.02-1.02,1.71-1.94,1.25-14.02-6.91-15.5,9.85-14.05-9.29,.48-6.33,1.92-10.24,1.95-16.56,.09-23.23-7.73-31.14-11.05-36.19-.9-1.37-1.85-2.72-2.89-3.99-.6-.73-1.12-1.37-1.15-1.39-3.13-3.55-4.94,0-7.34,2.32-4.08,3.94-7.34,7.13-9.39,8.88,1.47-.71,5.93-2.92,8.77-2.57,1.29-.38,6.08-1.01,8.28,9.14-.06,1.54-.09,2.1-.97,3.72-.19,.35-.48,.68-.8,1.23-.12,.22-.59,1.23-.89,1.6-.17,.2-.33,.5-.53,.68l-1.18,1.87c-3.81,7.25-10.57,11.11-16.54,14.52-5.61,3.2-10.91,6.23-13.47,11.6l-.12,.26-.63,.95c-1.03,1.57-2.21,3.34-3.66,4.89-2.36,2.5-4.69,3.65-5.95,4.26l-.46,.23c-1.13,.58-2.69,1.38-4.62,1.38-.05,0-.1-.01-.15-.01,6.46,10.74,16.5,18.38,26.93,19.48,1.09,.11,1.87-1.02,1.33-1.98-3.78-6.77-6.58-17.05-1.06-21.85,.25-.22,.39-.52,.43-.85,.4-3.77,6.19-6.55,9.37-4.48,.28,.18,.6,.28,.94,.24,10.73-1.29,19.01,15.74,18.19,25.48l.03,.4c1.39,5.76,3.82,12.26,5.04,18.26,.11,.56,.56,1.01,1.13,1.06,1.09,.11,2.28-.04,3.35,.02h.12c8.03-.53,11.06-5.26,22.42-1.45,2.77,.93,5.9,.33,7.88-1.82,2.9-3.16,3.78-8.21,2.03-17.41l-.02-.13c-1.1-11.22,2.27-20.26,4.75-29.43,0-2.9,7.65-13.74,4.53-14.28Z"/>
        <path class="cls-18" d="M58.87,99.56l.85,.37c.92,.42,1.62,1.07,2.59,1.97,1.81,1.69,4.56,4.23,7.73,4.23,1.72,0,3.55-.77,5.44-2.29,.45-.36,.92-.77,1.42-1.25,0,0,.68-.71,.91-.94,.24-.25,.96-.99,.96-.99,1.3-1.44,2.57-2.95,3.9-4.54,2.01-2.4,4.05-4.83,6.31-7.08-1.31,.66-2.67,1.23-4.08,1.69-8.07,2.6-18.03,1.69-22.09-.6-.45-.25-.51,.89-.75,1.34-1.42,2.66-2.53,5.37-3.37,8.1h.17Z"/>
      </g>
    </g>
  </g>
</svg>