<?xml version="1.0" encoding="UTF-8"?>
<svg id="Layer_2" data-name="Layer 2" xmlns="http://www.w3.org/2000/svg" xmlns:xlink="http://www.w3.org/1999/xlink" viewBox="0 0 190.49 233.79">
  <defs>
    <style>
      .cls-1 {
        fill: url(#linear-gradient);
      }

      .cls-2 {
        fill: #ee5007;
      }

      .cls-3 {
        fill: #fff;
      }

      .cls-4 {
        fill: #fb9e70;
      }

      .cls-5 {
        fill: #ff7442;
      }

      .cls-6 {
        fill: #0c0b0b;
      }

      .cls-7 {
        fill: url(#New_Gradient_Swatch_2);
      }

      .cls-8 {
        fill: url(#linear-gradient-8);
      }

      .cls-9 {
        fill: url(#linear-gradient-9);
      }

      .cls-10 {
        fill: url(#linear-gradient-3);
      }

      .cls-11 {
        fill: url(#linear-gradient-4);
      }

      .cls-12 {
        fill: url(#linear-gradient-2);
      }

      .cls-13 {
        fill: url(#linear-gradient-6);
      }

      .cls-14 {
        fill: url(#linear-gradient-7);
      }

      .cls-15 {
        fill: url(#linear-gradient-5);
      }

      .cls-16 {
        fill: url(#linear-gradient-14);
      }

      .cls-17 {
        fill: url(#linear-gradient-15);
      }

      .cls-18 {
        fill: url(#linear-gradient-16);
      }

      .cls-19 {
        fill: url(#linear-gradient-13);
      }

      .cls-20 {
        fill: url(#linear-gradient-12);
      }

      .cls-21 {
        fill: url(#linear-gradient-10);
      }

      .cls-22 {
        fill: url(#linear-gradient-11);
      }

      .cls-23 {
        fill: url(#New_Gradient_Swatch_2-2);
      }
    </style>
    <linearGradient id="linear-gradient" x1="7.94" y1="-1795.95" x2="65.19" y2="-1795.95" gradientTransform="translate(0 -1696.09) scale(1 -1)" gradientUnits="userSpaceOnUse">
      <stop offset=".01" stop-color="#fb9e70"/>
      <stop offset=".46" stop-color="#ff7442"/>
      <stop offset="1" stop-color="#ee5007"/>
    </linearGradient>
    <linearGradient id="linear-gradient-2" x1="28.11" y1="161.91" x2="45.73" y2="161.91" gradientUnits="userSpaceOnUse">
      <stop offset="0" stop-color="#ee5007"/>
      <stop offset=".54" stop-color="#ff7442"/>
      <stop offset=".99" stop-color="#fb9e70"/>
    </linearGradient>
    <linearGradient id="linear-gradient-3" x1="18.67" y1="63.43" x2="72.96" y2="63.43" gradientTransform="matrix(1, 0, 0, 1, 0, 0)" xlink:href="#linear-gradient"/>
    <linearGradient id="linear-gradient-4" x1="25.96" y1="178.79" x2="48.27" y2="178.79" xlink:href="#linear-gradient-2"/>
    <linearGradient id="linear-gradient-5" x1="56.07" y1="-1818.17" x2="77.3" y2="-1818.17" gradientTransform="translate(0 -1696.09) scale(1 -1)" xlink:href="#linear-gradient-2"/>
    <linearGradient id="linear-gradient-6" x1="33.5" y1="-1845.73" x2="47.35" y2="-1845.73" gradientTransform="translate(0 -1696.09) scale(1 -1)" xlink:href="#linear-gradient-2"/>
    <linearGradient id="linear-gradient-7" x1="58.2" y1="-1917.13" x2="71.94" y2="-1917.13" gradientTransform="translate(0 -1696.09) scale(1 -1)" xlink:href="#linear-gradient-2"/>
    <linearGradient id="linear-gradient-8" x1="51.81" y1="-1910.34" x2="65.89" y2="-1910.34" gradientTransform="translate(0 -1696.09) scale(1 -1)" xlink:href="#linear-gradient-2"/>
    <linearGradient id="linear-gradient-9" x1="66.34" y1="-1924.79" x2="79.76" y2="-1924.79" gradientTransform="translate(0 -1696.09) scale(1 -1)" xlink:href="#linear-gradient-2"/>
    <linearGradient id="linear-gradient-10" x1="41.31" y1="204.92" x2="67.05" y2="204.92" xlink:href="#linear-gradient-2"/>
    <linearGradient id="linear-gradient-11" x1="33.5" y1="192.56" x2="57.78" y2="192.56" xlink:href="#linear-gradient-2"/>
    <linearGradient id="linear-gradient-12" x1="73.43" y1="122.12" x2="106.99" y2="122.12" xlink:href="#linear-gradient-2"/>
    <linearGradient id="linear-gradient-13" x1="363.98" y1="-267.62" x2="382.42" y2="-267.62" gradientTransform="translate(-272.15 307.33) rotate(13.46)" xlink:href="#linear-gradient-2"/>
    <linearGradient id="linear-gradient-14" x1="0" y1="154.75" x2="32.42" y2="154.75" xlink:href="#linear-gradient-2"/>
    <linearGradient id="linear-gradient-15" x1="95.38" y1="121.45" x2="145.01" y2="121.45" xlink:href="#linear-gradient-2"/>
    <linearGradient id="linear-gradient-16" x1="-584.93" y1="776.02" x2="-551.99" y2="776.02" gradientTransform="translate(268.81 -777.29) rotate(-26.77)" xlink:href="#linear-gradient-2"/>
    <linearGradient id="New_Gradient_Swatch_2" data-name="New Gradient Swatch 2" x1="264.27" y1="78.53" x2="285.54" y2="78.53" gradientTransform="translate(255.95 311.25) rotate(-90) scale(1 -1)" gradientUnits="userSpaceOnUse">
      <stop offset="0" stop-color="#ee5007"/>
      <stop offset=".54" stop-color="#ff7442"/>
      <stop offset=".99" stop-color="#fb9e70"/>
    </linearGradient>
    <linearGradient id="New_Gradient_Swatch_2-2" data-name="New Gradient Swatch 2" x1="312.59" y1="84.41" x2="340.95" y2="84.41" gradientTransform="translate(43.66 -307.43) rotate(90) scale(1 -1)" xlink:href="#New_Gradient_Swatch_2"/>
  </defs>
  <g id="Layer_2-2" data-name="Layer 2">
    <g>
      <g>
        <path class="cls-1" d="M54.31,135.21c3.51-6.76,3.85-14.73,7.7-21.36,.95-1.69,2.03-3.18,3.18-4.66-7.23-.14-19.05-5.06-25.2-9.05-7.45-4.88-12.93-9.6-16.85-15.25-.33-.48-1.24-2.01-1.52-2.52-4.79-8.63-7.03-16.32-6.71-26.04-7.64,12.23-7.64,28.79-6.29,43.05,.81,8.72,2.84,19.46,7.64,27.78,2.77,3.72,5.61,7.57,8.85,10.48,8.18,7.23,23.38,8.85,29.2-2.43Z"/>
        <path class="cls-12" d="M45.73,153.26c-4.12,1.66-6.76,2.29-12.91,2.51-.67,2.05-1.96,4.82-1.96,4.82l-.06,.11s-3.17,6.8-2.63,7.47c1.06,1.32,8.35,3.13,12.56,2.04,2.05-.6,3.04-.81,4.53-1.69-.2-2.1-.14-7.16-.14-9.26,.14-2.37,.27-3.71,.61-6.01Z"/>
        <path class="cls-10" d="M43.74,97.1c1.98,1.1,15.65,8.98,24.37,8.51,1.69-1.82,2.75-2.37,4.85-3.9-3.27-1.29-6.17-3.82-8.32-5.7l-.27-.24c-4.46-3.84-8.46-8.86-12.57-15.8-6.42-11.02-10.23-23.99-11.03-37.51-.41-6.76,.25-13.63,2.02-21.23-9.74,5.47-17.45,12.29-22.54,21.93-.34,.61-.61,1.22-.88,1.89-1.69,12.84-.7,23.83,6.83,36.03,4.51,7.32,15.06,14.64,17.54,16.02Z"/>
        <path class="cls-5" d="M115.74,49.42c2.89-4.09,8.08-8.5,12.85-10.93l-2.32-1.01c-5.58-2.43-9.88-6.89-12.1-12.56s-2.11-11.86,.33-17.44l1.64-3.77c.07-.17,.17-.32,.25-.48-4.58-1.34-9.31-2.3-14.17-2.87-12.6-1.46-39.86,1-51.68,13.2-1.31,1.35-2.2,3.05-2.69,4.87-2.01,7.58-3.17,15.29-2.68,23.38,.74,12.71,4.19,25.14,10.61,36.16,3.24,5.47,7.1,10.88,11.96,15.07,2.7,2.37,7.03,6.29,11.02,6.02,2.57,0,5.77-.65,8.32-1.31,.87-.25,1.74-.49,2.64-.73,.02,0,.06-.02,.08-.02,4.9-1.24,9.92-2.58,14.22-4.5,4.84-2.16,6.02-7.01,4.89-12.18-.63-2.89-1.13-6.41-.94-10.03,.43-8.1,3.85-15.36,7.75-20.89Z"/>
        <path class="cls-5" d="M141.5,31.51l-1.99,3.91c5.41-1.55,12.84-1.93,21.45,1.61,.25,.1,1.02-1,2.54-3.58,1.93-3.28,1.79-3.12,1.58-3.83-.63-2.08-5.14-5.73-7.21-7.34-3.34-2.6-7.32-5.8-16.31-10.23,3.1,8.95,2.14,14.47-.05,19.47Z"/>
        <path class="cls-11" d="M48.3,181.64c-.27-.74-.54-1.49-.74-2.23-.14-.47-1.01-3.78-1.15-4.26-.27-1.22-.54-2.5-.68-3.72-7.06,2.47-16.65,1.94-19.74-.58,0,0,.7,4.42,2.21,7.93,1.97,4.58,2.77,5.02,3.88,7.38,6.02,1.55,11.96-.27,16.22-4.53Z"/>
        <path class="cls-15" d="M71.79,126.24c-.41-7.33,.54-13.68,3.2-21.87-4.05,3.02-7.19,7.63-9.43,12.18-2.43,4.93-2.57,8.12-4.4,13.26-1.28,3.45-2.61,7.29-5.04,9.99,5.15-2.26,9.5-2.94,15.47-3.24-.01-.37-.04-.73-.04-1.1,0-.88,.05-1.77,.14-2.64,.24-2.18,.21-4.39,.09-6.58Z"/>
        <path class="cls-13" d="M47.35,145.48c-.68,.27-1.42,.54-2.23,.68-3.31,.74-6.76,.81-10.07,.27-.27,2.43-.81,4.93-1.55,7.37,4.53-.74,8.79-1.28,12.71-3.51,.34-1.62,.68-3.24,1.15-4.8Z"/>
        <path class="cls-14" d="M67.63,215.5c-3.31,1.76-6.42,3.85-9.39,6.42,1.89,1.62,3.99,3.18,6.08,4.66,2.16-2.16,4.8-4.12,7.64-5.41-1.49-1.89-2.91-3.78-4.33-5.68Z"/>
        <path class="cls-8" d="M62.36,208.13c-4.12,2.46-6.78,4.8-10.5,7.37,1.76,2.03,2.66,3.04,4.69,4.87,2.7-2.91,5.88-5.34,9.39-7.23-1.22-1.69-2.43-3.31-3.58-5Z"/>
        <path class="cls-9" d="M73.84,223.61c-1.15,.47-2.3,.95-3.38,1.55-1.49,.81-2.84,1.76-4.12,2.77,3.38,2.16,7.03,4.12,11.02,5.74,1.49,.61,3.11-1.49,2.16-2.77-1.89-2.43-3.78-4.87-5.68-7.3Z"/>
        <path class="cls-21" d="M57.69,201.1c-.47-.88-2.5-4.19-2.97-5.07-4.19,3.04-8.84,6.59-13.43,6.32,1.42,2.16,2.89,4.29,4.44,6.32,1.42,1.76,2.84,3.45,4.33,5.14,3.51-2.77,7.23-5.27,11.15-7.3-1.22-1.76-2.37-3.58-3.51-5.41Z"/>
        <path class="cls-22" d="M50.39,187.18c-.34-.74-.61-1.49-.95-2.23-4.53,3.92-10.2,6.18-15.95,3.95,1.22,2.37,1.76,3.42,3.04,5.65,0,0,.01,0,.02,0,1,1.72,2.57,4.42,3.36,5.61,4.46,0,9.53-3.31,13.58-6.49-.61-1.15-2.5-5.27-3.11-6.49Z"/>
        <path class="cls-3" d="M89.74,97.05c-.9,.23-1.77,.48-2.64,.73,1.01-.26,1.92-.51,2.64-.73Z"/>
        <path class="cls-20" d="M106.06,95.48c-6.99,3.24-9.53,4.11-17.38,5.9-2.5,.57-6.91,1.3-9.08,1.43-2.59,7.41-4.2,13.12-4.26,19.61-.02,2.3,.45,2.41,.74,4.98,.02,.17,.04,.35,.06,.52-.37,1.46-1.56,5.51-1.59,7.16,0,.12-.01,.24-.01,.37,0,4.81,1.06,9.29,3.45,11.84,.58,.62,1.62,.24,1.71-.6l1.03-14.03,.13-.02h.03s.66,15.08,.66,15.08c.05,.43,.36,.78,.78,.88,.91,.21,1.9,.21,2.84,0,.42-.1,.74-.45,.79-.88l.78-15.98h.02s1.2,14.15,1.2,14.15c.09,.84,1.13,1.22,1.71,.6,2.31-2.47,3.23-6.75,3.29-11.38,0-.15,.01-.31,.01-.46,0-1.61-.18-3.15-.51-4.59h0c-.07-.7-.11-1.38-.12-2.02-.09-5.01,1.42-8.11,1.42-8.11,3.93-8.51,10-15.32,12.28-24.46Z"/>
        <path class="cls-19" d="M158.2,120.56c-2.67-.64-7.45-3.71-9.77-1.27-1.99,2.09-3.61,9.66-4.45,13.17-1.12,4.68-1.13,9.28,.6,12.32,.42,.73,1.52,.61,1.8-.19l4.6-14.44-3.23,16.65c-.05,.43,.17,.84,.56,1.03,.83,.41,1.79,.65,2.76,.66,.43,0,.83-.26,.97-.67l4.51-15.49-2.15,14.17c-.11,.84,.82,1.45,1.52,.98,2.92-1.93,4.85-6.07,5.97-10.75,1.82-7.6,1.24-15.01-3.71-16.19Z"/>
      </g>
      <path class="cls-16" d="M32.42,145.95c-3.02-.84-5.6-2.62-8.23-4.57-3.61-2.67-6.5-5.56-8.68-9.42-3.56,7.47-8.47,14.67-10.4,17.58-.2,.28-.39,.57-.58,.87-.06,.09-.09,.14-.09,.14h0c-.6,.97-1.17,1.98-1.68,3.05-2.88,6.05-3.44,12.32-1.96,16.97,.36,1.12,1.89,1.27,2.51,.27l8.14-16.21-7.69,19.62c-.2,.57-.01,1.2,.46,1.57,1.02,.8,2.26,1.4,3.57,1.7,.59,.13,1.2-.12,1.52-.63l9.67-18.13-6.74,16.33c-.39,1.11,.7,2.21,1.79,1.78,4.54-1.78,9.04-6.18,11.92-12.23,.93-1.96,1.61-3.93,2.07-5.88h.01c1.25-3.9,2.73-8.56,4.4-12.8Z"/>
      <g>
        <path class="cls-17" d="M142.94,111.28c-.82-.7-1.67-1.38-2.48-1.93-4.53-3.07-8.9-4.8-13.96-7.87-5.37-3.26-11.82-5.53-13.69-13.14h-.67l-2.09,8.72c-1.43,6.56-4.25,10.89-7.38,16.07-1.72,2.85-3.57,5.77-4.92,8.88-2.29,5.26-.32,11.98-.57,17.13-.13,2.76,1.43,6.39,3.6,8.09,5.11,3.98,9.18,7.33,16.38,7.35,1.64,0,3.33-.15,4.65-.41h0c2.63-.53,4.96-2.05,6.46-4.28,2.36-3.5,4.93-8.05,7.3-14.16,4.08-10.52,6.54-14.89,8.12-16.81,1.87-2.26,1.47-5.72-.75-7.63Z"/>
        <path class="cls-18" d="M122.41,157.97c-3.08,.62-7.84,.72-10.98-.22-3.06-.91-7.49-3.2-11.03-5.68-1.31-.92-3.1,.03-3.08,1.62,.03,2.47-.28,5.24-.5,7.4-.21,1.56-.19,3.42-.16,5.04,.16,6.7,3.62,23.73,7.03,27.2,.82,.84,2.26,.28,2.36-.89l-.04-18.13,1.97,20.98c.08,.6,.53,1.08,1.12,1.2,1.27,.26,2.65,.23,3.95-.09,.59-.15,1.02-.65,1.07-1.25l.47-20.54,1.33,17.61c.16,1.16,1.62,1.66,2.4,.78,3.25-3.63,5.29-9.59,5.13-16.29-.05-2.17-.34-4.24-.8-6.18h0c-.64-4.05-2.01-9.87-.26-12.56Z"/>
      </g>
      <g>
        <path class="cls-2" d="M146.42,38.17c-.49,.05-.96,.14-1.41,.25-2.98,.75-5.39,2.9-6.8,5.63-.83,1.62-1.7,3.81-1.92,6.24-.47,4.99,1.9,7.84,1.9,7.84,0,0,1.51,2.18,3.72,3.41s5.98,2.87,5.98,2.87c0,0,2.82,1.06,5.93,4.12s4.53,6.82,4.53,6.82c1.24,2.54,1.63,6.89,2.42,11.37,.88,4.96,3.02,7.29,3.02,7.29,6.82,8.59,15.69,12.2,15.69,12.2-.58-1.79-.41-10.71-.92-18.34-.29-4.38,.34-14.44-2.74-25.35,0,0-7.37-26.65-29.41-24.35Z"/>
        <path class="cls-4" d="M118.52,51.87c1.6-2.36,5.99-6.8,9.92-8.88,2.98-1.58,6.31-2.88,8.47-3.34-.99,1.03-4.08,4.65-4.6,10.27-.56,5.95,1.99,9.71,2.68,10.6,.44,.61,2.28,3.01,4.99,4.51,.77,.43,1.77,.94,2.97,1.51,1.75,.84,3.35,1.53,3.35,1.53,0,0,.19,.08,.19,.08,.01,0,.1,.04,.23,.11,.66,.31,2.39,1.25,4.3,3.12,2.41,2.37,3.59,5.37,3.6,5.4l.06,.16,.08,.17c.66,1.35,1.1,4.16,1.52,6.87,.17,1.12,.35,2.27,.56,3.43,.96,5.41,3.25,8.4,3.87,9.15,.11,.13,.21,.25,.32,.38,1.36,1.98,3.2,4.07,5.68,5.94,.54,.4,1.06,.78,1.57,1.14,3.63,2.85,6.91,4.59,8.62,5.41h0c.68,.33,1.07,.48,1.07,.48l1.94,.78c-.39,2.14-3.52,4.44-3.52,4.44-5.41,3.79-9.03,3.39-16.02,2.97-6.99-.42-11.3-5.69-14.14-8.61-2.84-2.92-5.65-4.27-12.37-7.98s-11.5-7.22-11.5-7.22c-14.08-10.75-10.44-25.14-9.52-29.78,.58-2.95,3.63-9.63,5.67-12.65Z"/>
        <path id="left_ear" data-name="left ear" class="cls-7" d="M170.13,25.71h3.08c8.19,0,14.85,6.65,14.85,14.85v3.08c0,1.85-1.5,3.35-3.35,3.35h-3.08c-8.19,0-14.85-6.65-14.85-14.85v-3.08c0-1.85,1.5-3.35,3.35-3.35Z" transform="translate(68.24 180.85) rotate(-64.51)"/>
        <path id="nouse" class="cls-6" d="M177.99,113.78c-.99,1.18-2.33,1.19-3.62,.34-1.28-.85-1.81-2.31-2.2-3.52-.15-.46-.12-1.28,0-1.75,.32-1.37,1.45-1.31,2.15-1.07,1.15,.39,2.31,1.52,3.5,1.29,.89-.17,2.17-.31,2.38,.58,.09,.37-.17,1.03-.44,1.59-.54,1.13-1.07,1.7-1.77,2.53Z"/>
        <path id="mouth" class="cls-6" d="M167.2,113.64c-.42-.72-.81-1.59-1.21-2.59-.62-1.54-.22,5.65,2.08,7.24,.97-.14,2.34-.27,3.17-.57-1.66-1.02-3.05-2.4-4.03-4.08Z"/>
        <path id="right_ear" data-name="right ear" class="cls-23" d="M133.68,5.16h4.11c2.46,0,4.46,2,4.46,4.46v4.11c0,10.92-8.87,19.79-19.79,19.79h-4.11c-2.46,0-4.46-2-4.46-4.46v-4.11c0-10.92,8.87-19.79,19.79-19.79Z" transform="translate(200.65 -87.94) rotate(115.49)"/>
        <g id="eye">
          <path class="cls-6" d="M136.38,75.75c-1.7,3.88-.21,8.58,3.7,10.44s8.58,.21,10.44-3.7c1.86-3.9,.12-8.42-3.7-10.44-1.32-.7-4.64-2.25-6.53-1.58s-3.04,3.3-3.91,5.28Z"/>
          <circle class="cls-3" cx="145.58" cy="78.09" r="3.92"/>
          <circle class="cls-3" cx="139.49" cy="80.43" r="1.97"/>
        </g>
      </g>
    </g>
  </g>
</svg>