<?xml version="1.0" encoding="UTF-8"?>
<svg id="Layer_2" data-name="Layer 2" xmlns="http://www.w3.org/2000/svg" xmlns:xlink="http://www.w3.org/1999/xlink" viewBox="0 0 209.31 244.19">
  <defs>
    <style>
      .cls-1 {
        fill: url(#linear-gradient);
      }

      .cls-2 {
        fill: #ee5007;
      }

      .cls-3 {
        fill: #fff;
      }

      .cls-4 {
        fill: #fb9e70;
      }

      .cls-5 {
        fill: #0c0b0b;
      }

      .cls-6 {
        fill: url(#New_Gradient_Swatch_2);
      }

      .cls-7 {
        fill: url(#linear-gradient-8);
      }

      .cls-8 {
        fill: url(#linear-gradient-9);
      }

      .cls-9 {
        fill: url(#linear-gradient-3);
      }

      .cls-10 {
        fill: url(#linear-gradient-4);
      }

      .cls-11 {
        fill: url(#linear-gradient-2);
      }

      .cls-12 {
        fill: url(#linear-gradient-6);
      }

      .cls-13 {
        fill: url(#linear-gradient-7);
      }

      .cls-14 {
        fill: url(#linear-gradient-5);
      }

      .cls-15 {
        fill: url(#linear-gradient-14);
      }

      .cls-16 {
        fill: url(#linear-gradient-15);
      }

      .cls-17 {
        fill: url(#linear-gradient-16);
      }

      .cls-18 {
        fill: url(#linear-gradient-17);
      }

      .cls-19 {
        fill: url(#linear-gradient-13);
      }

      .cls-20 {
        fill: url(#linear-gradient-12);
      }

      .cls-21 {
        fill: url(#linear-gradient-10);
      }

      .cls-22 {
        fill: url(#linear-gradient-11);
      }

      .cls-23 {
        fill: url(#New_Gradient_Swatch_2-2);
      }
    </style>
    <linearGradient id="linear-gradient" x1="87.23" y1="-2442.77" x2="177.8" y2="-2442.77" gradientTransform="translate(0 -2252.04) scale(1 -1)" gradientUnits="userSpaceOnUse">
      <stop offset="0" stop-color="#ee5007"/>
      <stop offset=".54" stop-color="#ff7442"/>
      <stop offset=".99" stop-color="#fb9e70"/>
    </linearGradient>
    <linearGradient id="linear-gradient-2" x1="139.48" y1="-2352.71" x2="203.99" y2="-2352.71" xlink:href="#linear-gradient"/>
    <linearGradient id="linear-gradient-3" x1="7.16" y1="-2463.51" x2="22.44" y2="-2463.51" xlink:href="#linear-gradient"/>
    <linearGradient id="linear-gradient-4" x1="144.87" y1="-2309.72" x2="144.96" y2="-2309.72" xlink:href="#linear-gradient"/>
    <linearGradient id="linear-gradient-5" x1="-.03" y1="-2454.99" x2="13.56" y2="-2454.99" xlink:href="#linear-gradient"/>
    <linearGradient id="linear-gradient-6" x1="38.97" y1="-2482.32" x2="54.95" y2="-2482.32" xlink:href="#linear-gradient"/>
    <linearGradient id="linear-gradient-7" x1="26.9" y1="-2477.84" x2="47.31" y2="-2477.84" xlink:href="#linear-gradient"/>
    <linearGradient id="linear-gradient-8" x1="15.09" y1="-2471.42" x2="34.79" y2="-2471.42" xlink:href="#linear-gradient"/>
    <linearGradient id="linear-gradient-9" x1="131.85" y1="164.79" x2="199.58" y2="164.79" gradientTransform="matrix(1, 0, 0, 1, 0, 0)" xlink:href="#linear-gradient"/>
    <linearGradient id="linear-gradient-10" x1="87.04" y1="190.83" x2="177.61" y2="190.83" gradientTransform="matrix(1, 0, 0, 1, 0, 0)" xlink:href="#linear-gradient"/>
    <linearGradient id="linear-gradient-11" x1="41.38" y1="-2467.63" x2="106.84" y2="-2467.63" xlink:href="#linear-gradient"/>
    <linearGradient id="linear-gradient-12" x1="16.22" y1="136.8" x2="144.43" y2="136.8" gradientTransform="matrix(1, 0, 0, 1, 0, 0)" xlink:href="#linear-gradient"/>
    <linearGradient id="linear-gradient-13" x1="-2465.43" y1="1514.32" x2="-2426.6" y2="1514.32" gradientTransform="translate(-2493.91 1335.19) rotate(123.63) scale(1 -1)" xlink:href="#linear-gradient"/>
    <linearGradient id="New_Gradient_Swatch_2" data-name="New Gradient Swatch 2" x1="508.11" y1="378.72" x2="529.39" y2="378.72" gradientTransform="translate(535.75 -505.17) rotate(90)" gradientUnits="userSpaceOnUse">
      <stop offset="0" stop-color="#ee5007"/>
      <stop offset=".54" stop-color="#ff7442"/>
      <stop offset=".99" stop-color="#fb9e70"/>
    </linearGradient>
    <linearGradient id="New_Gradient_Swatch_2-2" data-name="New Gradient Swatch 2" x1="548.3" y1="390.57" x2="576.66" y2="390.57" gradientTransform="translate(-198.8 602.23) rotate(-90)" xlink:href="#New_Gradient_Swatch_2"/>
    <linearGradient id="linear-gradient-14" x1="65.59" y1="233.14" x2="81.38" y2="233.14" gradientTransform="matrix(1, 0, 0, 1, 0, 0)" xlink:href="#linear-gradient"/>
    <linearGradient id="linear-gradient-15" x1="78.72" y1="235.35" x2="95.89" y2="235.35" gradientTransform="matrix(1, 0, 0, 1, 0, 0)" xlink:href="#linear-gradient"/>
    <linearGradient id="linear-gradient-16" x1="54.11" y1="231.93" x2="66.09" y2="231.93" gradientTransform="matrix(1, 0, 0, 1, 0, 0)" xlink:href="#linear-gradient"/>
    <linearGradient id="linear-gradient-17" x1="100.49" y1="234.09" x2="122.23" y2="234.09" gradientTransform="matrix(1, 0, 0, 1, 0, 0)" xlink:href="#linear-gradient"/>
  </defs>
  <g id="Layer_2-2" data-name="Layer 2">
    <g>
      <path class="cls-1" d="M141.31,176.57c-4.12-3.38-8.25-7.03-11.22-11.49-1.55-2.23-5.41-7.3-4.6-10.61-19.33,2.37-37.85,16.36-38.25,37.51-.2,11.62,4.66,21.15,14.53,27.51,8.72,5.68,16.76,8.18,26.56,7.37,6.69-1.55,13.18-4.19,18.72-6.96,11.96-6.02,23.18-15.54,30.75-27.03-12.5,.81-28.25-9.53-36.5-16.29Z"/>
      <path class="cls-11" d="M176.25,62.93c-.11,1.68-.15,7-1.86,10.92-2.89,6.63-7.01,11.28-12.9,15.49-6.4,4.57-17.51,10.32-20.69,20.23-2.65,8.27-1.33,17.46,4.2,24.17,6.42,7.78,17.98,9.16,29.39,9.06,8.56-.12,17.83-1.24,24.65-6.07,1.69-1.2,2.94-2.93,3.48-4.94,1.03-3.84,1.35-7.99,1.46-11.84,.47-20.41-9.87-41.77-21.76-58.39-.78-1.11-.6-.8-1.46-2.05-1.06-1.65-4.03-1.72-4.5,3.41Z"/>
      <path class="cls-9" d="M22.44,208.7c-2.7-1.82-5.27-3.85-7.7-6.02-1.55,4.12-4.19,7.84-7.57,10.61,1.96,2.5,4.12,4.8,6.29,6.96,3.85-3.18,6.96-7.1,8.99-11.56Z"/>
      <path class="cls-10" d="M144.9,57.65v.07h.07s-.07,0-.07-.07Z"/>
      <path class="cls-14" d="M13.58,201.61c-2.43-2.23-4.8-4.66-7.1-7.16-.54,1.01-1.15,2.03-1.89,3.04-1.42,1.82-2.97,3.51-4.6,5.14,1.69,3.04,3.65,6.02,5.81,8.85,3.31-2.7,5.95-5.95,7.77-9.87Z"/>
      <path class="cls-12" d="M54.95,220.06c-1.96-.14-3.99-.34-5.95-.68-4.6,5.07-8.31,10.54-10,17.03,2.14,1.31,8.53,3.71,14.6,4.76-2.16-6.49-1.42-14.83,1.35-21.12Z"/>
      <path class="cls-13" d="M47.31,219.11c-3.78-.74-7.5-1.82-11.22-3.24-2.43,5.41-5.41,10.41-9.19,14.87,3.24,1.96,6.76,3.58,10.34,5,1.69-6.42,4.93-12.5,10.07-16.63Z"/>
      <path class="cls-7" d="M32.44,214.38c-3.24-1.49-6.22-3.18-9.06-5-1.69,4.87-4.46,9.12-8.25,12.44,1.82,1.69,3.72,3.31,5.61,4.8,1.28,.95,2.57,1.89,3.92,2.77,3.85-4.33,7.3-8.92,10.21-13.99-.88-.34-1.62-.68-2.43-1.01Z"/>
      <path class="cls-8" d="M185.75,147c-11.69,1.89-27.96,2.18-38.64-5.46-3.11,4.93-5.31,7.12-10.65,9.48-3.29,1.48-4.57,3.56-4.61,5.87,.33,1.01,1.25,2.78,3.42,5.84l.42,.6c2.57,3.85,5.65,7.05,10.09,10.68,9.1,7.46,20.3,14.01,30.42,14.01,.2,0,1.41,0,2.59,.02,1.52,0,3.03-.14,4.52-.44h.01c.1-.05,.24-.13,.34-.18,3.29-3.32,4.91-9.1,6.59-12.81,4.53-10.27,8.79-20.98,9.33-33.08-3.65,2.23-9.7,4.78-13.83,5.46Z"/>
      <path class="cls-21" d="M140.12,176.67c-4.12-3.38-7.25-7.03-10.22-11.49-1.55-2.23-5.41-7.3-4.6-10.61-19.33,2.37-37.85,16.36-38.25,37.51-.2,11.62,4.66,21.15,14.53,27.51,8.72,5.68,16.76,8.18,26.56,7.37,6.69-1.55,13.18-4.19,18.72-6.96,11.96-6.02,23.18-15.54,30.75-27.03-12.5,.81-29.25-9.53-37.5-16.29Z"/>
      <path class="cls-22" d="M92.67,234.98c4.06,3.45,9.58-.7,13.45-4.31,1.08-1.01,.77-2.76-.55-3.4-10.07-4.83-18.63-13.57-21.5-23.62-.16-.58-.55-1.06-1.09-1.33-3.12-1.52-6.35-2.87-9.63-4.11-4.6-1.55-9.39-2.57-14.19-3.04-3.99-.41-17.57-1.15-17.84,4.87,0,.41,.27,.74,.68,.88h.07c5.34-1.15,11.29-1.28,15.75,1.76,.07,.07,.07,.14-.07,.14-4.18,.29-8.1-.08-12.08,.13-1.41,.07-2.42,1.51-1.86,2.81,0,.01,0,.02,.01,.03,.27,.59,.59,1.02,.96,1.35,.46,.42,1.1,.56,1.71,.45,3.98-.7,7.95-.98,11.93,.22,.47,.14,.34,.74-.14,.81-3.78,.47-7.57,.54-11.29,1.01-.14,.2-.2,.41-.27,.61-.27,.61-.14,1.62,.74,1.76,7.03,1.14,13.73,3.14,20.04,5.94,.11,.05,.23,.09,.36,.11,5.2,1.1,10.01,3.31,14.41,6.79,3.92,2.97,6.69,6.96,10.41,10.14Z"/>
      <path class="cls-20" d="M107.7,98.57c.51-1.04,1.83-3.71,1.77-3.37-2.91,13.31-8.63,22.13-18.43,31.66-8.45,8.25-19.26,14.87-27.17,23.79-2.5,3.58-4.53,7.57-5.54,11.69,0,0-1.84-2.93-5.63-7.81-.02-.03-.03-.06-.05-.09-1.74-2.33-3.62-4.59-5.56-6.79-.04-.04-.07-.09-.11-.13-.02-.03-.05-.05-.07-.07-.31-.35-.62-.71-.94-1.06-3.38-3.48-7.18-6.58-11.23-9.19-3.36-2.18-15.1-9.05-18.09-3.83-.19,.36-.1,.78,.2,1.09l.06,.03c5.27,1.42,10.63,4.02,13.2,8.76,.03,.09,0,.15-.12,.09-3.89-1.66-7.23-3.81-10.91-5.45-1.28-.57-2.74,.3-2.83,1.69v.04c-.03,.65,.06,1.18,.23,1.64,.21,.58,.72,1,1.31,1.18,3.86,1.19,7.52,2.77,10.51,5.65,.36,.34-.04,.82-.49,.66-3.58-1.31-6.98-2.98-10.5-4.26-.21,.12-.37,.27-.52,.42-.52,.42-.86,1.38-.14,1.9,5.73,4.23,10.78,9.07,15.11,14.44l.26,.26c4.12,3.35,7.38,7.52,9.72,12.63,2.13,4.44,2.77,9.25,4.62,13.77,1.77,4.29,7.17,3.96,11.9,2.84,2.06-.15,4.18-.89,6.24-2.06,2.17,1.47,3.34,.9,7.61,2.9,2.14,1,4.93,1.89,6.61,2.69,.54,.26,1.17,.58,1.76,.9,.85,.45,1.84-.08,1.77-1.04s.13-2.93,.14-3.76c.21-22.61,22.07-40.99,44.71-41.26,3.04-.27,4.78-.43,7.14-1.24,3.78-1.31,3.78-1.36,3.87-2.62,.03-.44-.65-1.38-1.28-1.13-6.97,2.72-12.34,3.34-19.06,2.92-1.18-.07-3,.29-4.07,.8-4.02,1.93-12.11,4.94-13.33,1.78-1.42,.74-3.53,.37-5.08,.24-1.89-.14-2.6-3.69-1.99-5.04-.54,.07-1.01,.14-1.49,.07-3.58-.54,.81-6.56,1.28-7.23,8.92-13.31,26.67-17.97,41.97-19.33-.41-5.88,1.67-11.47,5.05-16.74l4.32-5.97c-15.79,.51-26.52-8.61-32.62-13.92-2.5-2.18-5.04-3.04-6.64-3.35-.89-.17-1.8-.02-2.6,.4-6.21,3.28-6.77,8.55-7.99,11.43l-3.62,9.08c-1.02,2.57-2.57,4.89-4.58,6.79-.22,.21-.36,.33-.37,.31-10.6,6.99-22.11,11.57-24.67,25.02,.29,.4,.59,.85,.93,1.22,8.86-15.58,10.8-13.29,1.68,1.18,.1,.09,.14,.2,.08,.35,3.26,2.13,9.03-8.6,11.14-11,3.52-1.39-5.27,9.69-6.02,10.51,.02,.14,.03,.19,.05,.33,1.71,.79,5.18-2.98,7.12-5.3,4.03-3.53,9.53-4.13,13.99-7.29h0s.08-.04,.11-.07c4.02-2.62,9.96-9.61,12.83-14.94,2.19-4.07,3.84-6.55,4.45-7.79Z"/>
      <path class="cls-19" d="M113.34,138.26c-1.97,1.51-4.07,2.64-6.16,3.97-1.05,.63-2.1,1.2-3.14,1.83-.74,.38-1.42,.76-2.16,1.14-1.11,.94-2.35,.77-3.6-.4,.12-.13,.12-.25,.06-.37,3.83-1.9,7.99-6.84,10.21-8.97,.31-.31-.13-.87-.5-.62-3.76,2.39-7.39,5.03-10.9,7.79-.19-.49-.32-1.05-.45-1.55,.98-1.62,2.08-3.12,3.43-4.44,1.72-1.88,3.87-3.32,5.97-4.71,8.44-5.6,18.91-6.94,28.55-9.51,.92,5.7,3.64,11.19,7.96,15.3,.19,.12,.31,.25,.5,.31-4.14,1.78-8.15,3.06-12.67,3.97-5.27,1.05-9.75,1.15-14.81,1.24-1.14,.02-2.25,.32-3.25,.87-2.77,1.54-7.6,3.91-8.97,2.49l.08-.34c3.8-1.97,7.11-4.49,10.5-7.01,.55-.44-.01-1.43-.63-.99Z"/>
      <g>
        <path class="cls-2" d="M169.22,42.14c.17,.46,.31,.92,.4,1.37,.65,3-.19,6.12-2.01,8.59-1.08,1.46-2.65,3.22-4.73,4.5-4.26,2.64-7.87,1.79-7.87,1.79,0,0-2.62-.38-4.71-1.81-2.09-1.44-5.24-4.07-5.24-4.07,0,0-2.2-2.05-6.33-3.47-4.13-1.42-8.13-1.02-8.13-1.02-2.82,.02-6.89,1.62-11.25,2.9-4.83,1.43-7.87,.55-7.87,.55-10.72-2.27-17.92-8.6-17.92-8.6,1.86-.28,9.77-4.41,16.83-7.36,4.05-1.69,12.77-6.74,23.91-8.85,0,0,27.14-5.29,34.91,15.47Z"/>
        <path class="cls-4" d="M169.39,73.22c1.4-2.48,3.41-8.39,3.52-12.84,.08-3.37-.24-6.93-.78-9.07-.48,1.34-2.35,5.73-7.14,8.7-5.07,3.15-9.58,2.55-10.69,2.33-.74-.12-3.71-.7-6.26-2.45-.73-.5-1.63-1.17-2.67-1.99-1.53-1.2-2.87-2.32-2.87-2.32,0,0-.16-.14-.16-.14,0,0-.08-.07-.2-.16-.57-.45-2.18-1.59-4.71-2.46-3.19-1.1-6.41-.82-6.44-.82l-.17,.02h-.19c-1.5,.01-4.21,.88-6.83,1.71-1.08,.34-2.19,.7-3.32,1.03-5.26,1.55-8.97,.84-9.91,.61-.16-.04-.32-.08-.49-.11-2.38-.34-5.07-1.05-7.85-2.44-.6-.3-1.17-.6-1.72-.89-4.17-1.98-7.19-4.13-8.68-5.3h0c-.6-.47-.91-.74-.91-.74l-1.56-1.39c-1.74,1.3-2.4,5.13-2.4,5.13-.98,6.53,.99,9.59,4.48,15.66,3.49,6.07,10.13,7.57,14.01,8.81,3.88,1.24,6.34,3.15,12.66,7.52,6.32,4.37,11.59,7.07,11.59,7.07,15.9,7.82,27.16-1.87,30.9-4.76,2.38-1.84,7.01-7.54,8.79-10.72Z"/>
        <path id="left_ear" data-name="left ear" class="cls-6" d="M161.24,2.94h3.08c1.85,0,3.35,1.5,3.35,3.35v3.08c0,8.19-6.65,14.85-14.85,14.85h-3.08c-1.85,0-3.35-1.5-3.35-3.35v-3.08c0-8.19,6.65-14.85,14.85-14.85Z" transform="translate(49.6 128.91) rotate(-51.97)"/>
        <path id="nouse" class="cls-5" d="M87.47,47.6c-.51,1.45-.02,2.62,1.31,3.39,1.33,.77,2.87,.59,4.13,.4,.48-.07,1.2-.46,1.57-.77,1.08-.9,.53-1.89,0-2.41-.86-.85-2.39-1.39-2.71-2.56-.24-.88-.7-2.08-1.58-1.87-.37,.09-.8,.55-1.23,1-.59,.61-1.09,1.72-1.48,2.82Z"/>
        <path id="mouth" class="cls-5" d="M92.4,57.19c.83,.06,1.79,.01,2.86-.07,1.66-.13-6.25,3.91-7.41,1.37-.4-.87-.8-2.22-.9-3.09,1.65,1.03,3.51,1.66,5.45,1.79Z"/>
        <path id="right_ear" data-name="right ear" class="cls-23" d="M182.05,25.57h4.11c10.92,0,19.79,8.87,19.79,19.79v4.11c0,2.46-2,4.46-4.46,4.46h-4.11c-10.92,0-19.79-8.87-19.79-19.79v-4.11c0-2.46,2-4.46,4.46-4.46Z" transform="translate(314.42 -112.93) rotate(117.07)"/>
        <g id="eye">
          <path class="cls-5" d="M140.05,67.88c-2.72,3.25-7.59,4.01-10.99,1.34-3.41-2.66-4.01-7.59-1.34-10.99,2.66-3.41,7.48-3.86,10.99-1.34,1.21,.87,4.09,3.15,4.33,5.14,.24,1.99-1.6,4.19-2.98,5.85Z"/>
          <circle class="cls-3" cx="133.86" cy="60.69" r="3.92"/>
          <circle class="cls-3" cx="134.48" cy="67.18" r="1.97"/>
        </g>
      </g>
      <path class="cls-15" d="M67.03,222.43c-.35-.07-.71-.19-1.05-.33-.75,7.75-.31,14.44,2.76,21.69,1.77,.61,5.4,.42,6.82,.22,2.7-.41,3.25-.55,5.88-1.03-2.9-5.11-4.72-11.17-4.87-16.76-2.97-1.81-6.11-3.06-9.54-3.78Z"/>
      <path class="cls-16" d="M90.08,238.49c-1.85-1.58-3.43-3.28-4.96-4.92-1.75-1.88-3.39-3.65-5.28-5.08-.36-.28-.72-.54-1.08-.8,.32,2.39,.75,4.76,1.59,6.97,1.22,3.24,1.96,5.02,3.71,7.79,.47,.2,.95,.41,1.49,.47,2.9,.45,6.99-.72,10.35-2.2-2.15-.05-4.16-.82-5.83-2.23Z"/>
      <path class="cls-17" d="M63.73,221.15c-.91-.37-1.83-.72-2.75-1.06-1.5,.05-3,.08-4.48,.04-2.7,6.69-3.15,14.82-.98,21.51,1.56,.59,7.67,2.2,10.58,2.13-1.97-6.35-3.87-16.13-2.36-22.62Z"/>
      <path class="cls-18" d="M111.07,228.23c-.2,.24-.43,.5-.66,.77,.02,.08,.04,.16,.05,.24,.3,1.98-.15,3.44-1.61,4.81-2.15,2.01-5.08,4.48-8.36,5.78,1.12,.16,2.81,.25,4.06-.23,.1-.02,.21-.04,.31-.06,5.67-1.17,10.98-3.66,15.53-7.24,1.5-1.18,1.03-.81,1.78-1.4-1.95,.29-9.02-.58-11.11-2.67Z"/>
    </g>
  </g>
</svg>