<?xml version="1.0" encoding="UTF-8"?>
<svg id="Layer_2" data-name="Layer 2" xmlns="http://www.w3.org/2000/svg" xmlns:xlink="http://www.w3.org/1999/xlink" viewBox="0 0 214.15 205.99">
  <defs>
    <style>
      .cls-1 {
        fill: none;
      }

      .cls-2 {
        fill: url(#linear-gradient);
      }

      .cls-3 {
        fill: #ee5007;
      }

      .cls-4 {
        fill: url(#New_Gradient_Swatch_2);
      }

      .cls-5 {
        fill: url(#New_Gradient_Swatch_1);
      }

      .cls-6 {
        fill: url(#linear-gradient-8);
      }

      .cls-7 {
        fill: url(#linear-gradient-9);
      }

      .cls-8 {
        fill: url(#linear-gradient-3);
      }

      .cls-9 {
        fill: url(#linear-gradient-4);
      }

      .cls-10 {
        fill: url(#linear-gradient-2);
      }

      .cls-11 {
        fill: url(#linear-gradient-6);
      }

      .cls-12 {
        fill: url(#linear-gradient-7);
      }

      .cls-13 {
        fill: url(#linear-gradient-5);
      }

      .cls-14 {
        fill: url(#linear-gradient-14);
      }

      .cls-15 {
        fill: url(#linear-gradient-15);
      }

      .cls-16 {
        fill: url(#linear-gradient-16);
      }

      .cls-17 {
        fill: url(#linear-gradient-13);
      }

      .cls-18 {
        fill: url(#linear-gradient-12);
      }

      .cls-19 {
        fill: url(#linear-gradient-10);
      }

      .cls-20 {
        fill: url(#linear-gradient-11);
      }

      .cls-21 {
        fill: url(#New_Gradient_Swatch_2-2);
      }
    </style>
    <linearGradient id="New_Gradient_Swatch_2" data-name="New Gradient Swatch 2" x1="-740.61" y1="-1589.67" x2="-712.26" y2="-1589.67" gradientTransform="translate(1666.14 743.31) rotate(90) scale(1 -1)" gradientUnits="userSpaceOnUse">
      <stop offset="0" stop-color="#ee5007"/>
      <stop offset=".54" stop-color="#ff7442"/>
      <stop offset=".99" stop-color="#fb9e70"/>
    </linearGradient>
    <linearGradient id="New_Gradient_Swatch_2-2" data-name="New Gradient Swatch 2" x1="-1639.08" y1="-765.59" x2="-1617.17" y2="-765.59" gradientTransform="translate(-1749.01 155.49) rotate(-159.11) scale(1 -1)" xlink:href="#New_Gradient_Swatch_2"/>
    <linearGradient id="linear-gradient" x1="103.75" y1="66.17" x2="139.23" y2="66.17" gradientUnits="userSpaceOnUse">
      <stop offset="0" stop-color="#ee5007"/>
      <stop offset=".54" stop-color="#ff7442"/>
      <stop offset=".99" stop-color="#fb9e70"/>
    </linearGradient>
    <linearGradient id="linear-gradient-2" x1="0" y1="-2334.67" x2="112.31" y2="-2334.67" gradientTransform="translate(0 -2241.99) scale(1 -1)" gradientUnits="userSpaceOnUse">
      <stop offset=".01" stop-color="#fb9e70"/>
      <stop offset=".46" stop-color="#ff7442"/>
      <stop offset="1" stop-color="#ee5007"/>
    </linearGradient>
    <linearGradient id="linear-gradient-3" x1="1.42" y1="149.51" x2="120.25" y2="149.51" gradientTransform="matrix(1, 0, 0, 1, 0, 0)" xlink:href="#linear-gradient-2"/>
    <linearGradient id="linear-gradient-4" x1="95.18" y1="59.06" x2="109.77" y2="59.06" xlink:href="#linear-gradient"/>
    <linearGradient id="linear-gradient-5" x1="145.62" y1="-2422" x2="164.97" y2="-2422" gradientTransform="translate(0 -2241.99) scale(1 -1)" xlink:href="#linear-gradient"/>
    <linearGradient id="linear-gradient-6" x1="157.34" y1="-2414.26" x2="178.27" y2="-2414.26" gradientTransform="translate(0 -2241.99) scale(1 -1)" xlink:href="#linear-gradient"/>
    <linearGradient id="linear-gradient-7" x1="189.45" y1="-2383.47" x2="207.16" y2="-2383.47" gradientTransform="translate(0 -2241.99) scale(1 -1)" xlink:href="#linear-gradient"/>
    <linearGradient id="linear-gradient-8" x1="204.41" y1="-2359.88" x2="214.11" y2="-2359.88" gradientTransform="translate(0 -2241.99) scale(1 -1)" xlink:href="#linear-gradient"/>
    <linearGradient id="linear-gradient-9" x1="169.44" y1="-2405.97" x2="188.97" y2="-2405.97" gradientTransform="translate(0 -2241.99) scale(1 -1)" xlink:href="#linear-gradient"/>
    <linearGradient id="linear-gradient-10" x1="198.74" y1="-2372.1" x2="212.4" y2="-2372.1" gradientTransform="translate(0 -2241.99) scale(1 -1)" xlink:href="#linear-gradient"/>
    <linearGradient id="linear-gradient-11" x1="178.17" y1="-2396.39" x2="201.42" y2="-2396.39" gradientTransform="translate(0 -2241.99) scale(1 -1)" xlink:href="#linear-gradient"/>
    <linearGradient id="linear-gradient-12" x1="208.14" y1="-2346.4" x2="214.18" y2="-2346.4" gradientTransform="translate(0 -2241.99) scale(1 -1)" xlink:href="#linear-gradient"/>
    <linearGradient id="linear-gradient-13" x1="117.03" y1="-2430.16" x2="137.13" y2="-2430.16" gradientTransform="translate(0 -2241.99) scale(1 -1)" xlink:href="#linear-gradient"/>
    <linearGradient id="linear-gradient-14" x1="137.06" y1="-2427.47" x2="150.62" y2="-2427.47" gradientTransform="translate(0 -2241.99) scale(1 -1)" xlink:href="#linear-gradient"/>
    <linearGradient id="linear-gradient-15" x1="44.65" y1="184.08" x2="129.1" y2="184.08" gradientTransform="matrix(1, 0, 0, 1, 0, 0)" xlink:href="#linear-gradient-2"/>
    <linearGradient id="New_Gradient_Swatch_1" data-name="New Gradient Swatch 1" x1="57" y1="-273.38" x2="110.31" y2="-273.38" gradientTransform="translate(-14.68 367.48) rotate(14.26)" gradientUnits="userSpaceOnUse">
      <stop offset="0" stop-color="#fb9e70"/>
      <stop offset=".51" stop-color="#ff7442"/>
      <stop offset="1" stop-color="#ee5007"/>
    </linearGradient>
    <linearGradient id="linear-gradient-16" x1="1.42" y1="45.65" x2="27.07" y2="45.65" xlink:href="#linear-gradient"/>
  </defs>
  <g id="Layer_2-2" data-name="Layer 2">
    <g>
      <path id="right_ear" data-name="right ear" class="cls-4" d="M82.08,2.69h4.11c2.46,0,4.46,2,4.46,4.46v4.11c0,10.92-8.87,19.79-19.79,19.79h-4.11c-2.46,0-4.46-2-4.46-4.46v-4.11c0-10.92,8.87-19.79,19.79-19.79Z" transform="translate(154.17 7.19) rotate(160.46)"/>
      <path id="right_ear-2" data-name="right ear" class="cls-21" d="M36.39,12.92l1.13-2.97c.68-1.78,2.67-2.67,4.45-1.99l2.97,1.13c7.89,3.01,11.84,11.85,8.83,19.73l-1.13,2.97c-.68,1.78-2.67,2.67-4.45,1.99l-2.97-1.13c-7.89-3.01-11.84-11.85-8.83-19.73Z"/>
      <path class="cls-2" d="M138.48,39.7c-.35-.86-1.58-.88-2.01-.05l-6.31,13.09-.16-.08,5.13-15.69c.12-.46-.07-.95-.47-1.22-.89-.59-1.92-.98-2.94-1.12-.47-.07-.94,.17-1.15,.6l-6.65,15.38c-.09,.03-.18,.07-.28,.11l4.29-14.31c.24-.9-.69-1.71-1.53-1.3-3.48,1.7-6.35,5.91-8.24,10.89-.89,2.32-1.36,4.64-1.48,6.83-.19,.67-.41,1.55-.68,2.67-.73,3.05-2.1,5.43-12.26,16.4,1.31,1.73,2.31,3.72,3.28,6.1,2.54,5.75,6.75,12.73,9.05,19.76,4.87-6.46,6.5-13.94,9.18-21.3,.96-2.64,2.2-5.15,3.65-7.55,2.95-4.86,5.98-9.43,7.16-13.03h0c.43-.83,.83-1.69,1.18-2.59,1.9-4.97,2.73-9.97,1.26-13.55Z"/>
      <path class="cls-10" d="M62.48,135.78c19.6-5.77,36.52-16.9,48.63-33.27,1.36-1.84,1.57-4.29,.56-6.35-.72-1.48-1.36-3.05-2.03-4.65-4.19-10.27-9.33-20.21-16.02-29.13-3.71-4.93-8.05-8.92-12.12-11.47-1.24-.78-4.23-2.02-5.62-2.45-5.43-1.69-10.43-2.49-15.31-2.37-6.74,.18-13.28,.7-19.66,2.07-5.99,1.29-11.64,3.93-16.41,7.78-9.82,7.95-14.81,16.4-17.26,22.45h0c-2.5,5.54-4.39,11.35-5.68,16.96-1.4,6.24-2.74,21.14,.05,32.11,.33,1.29,1.13,2.41,2.23,3.16,15.99,10.9,41.77,10.1,58.61,5.14Z"/>
      <g>
        <path class="cls-1" d="M119.92,130.24s0,0,0,0"/>
        <path class="cls-8" d="M119.92,130.24c-1.36-11.48-2.05-17.84-5.16-26.03-.14,.23-.27,.46-.43,.68-12.25,16.56-29.79,28.56-50.72,34.73-8,2.36-17.33,3.65-26.27,3.65h0c-9.94,0-24.09-1.59-35.34-9.08,.39,4.1,.86,8.95,1.05,10.64,2.26,20.07,24.93,47.55,47.17,49.74,.8,.08,4.13,.28,5.35,.23,35.42-1.5,68.3-17.69,64.35-64.55Z"/>
        <path class="cls-3" d="M60.48,42.1c.36,0,.71-.01,1.06-.01,4.93,0,10.01,.84,15.54,2.56,1.59,.5,4.93,1.86,6.55,2.88,.75,.47,1.5,.98,2.24,1.53,1.78,1.3,3.76,2.28,5.84,3.01h.03c2.51,.89,4.67,1.68,6.74,1.68,1.92,0,3.69-.48,5.29-1.44,1.71-1.03,4.19-3.38,5.46-6,.35-.73,.4-1.6,.04-2.32-1.47-2.95-6.86-3.06-9.12-3.09-8.94-.12-16.01-.48-21.51-2.01-1.9-.53-5.78-1.75-8.81-2.53-7.23-1.86-12.16-1.52-19.44,.13-3.33,.76-6.55,1.88-9.21,3.45-3.01,1.84-5.84,3.37-10.11,7.06-.18,.15-.34,.31-.48,.46,3-1.41,6.19-2.5,9.48-3.21,5.83-1.26,12.31-1.94,20.39-2.16Z"/>
        <path class="cls-9" d="M109.48,50.62c-1.2,4.23-8.53,7.8-14.31,6.48,1.56,2.12,5.34,8.08,6.8,10.39,1.32-1.65,2.85-4.05,4.36-6.81s2.76-6.65,3.26-10.06h-.1Z"/>
      </g>
      <path class="cls-13" d="M155.02,166.93c-3.11,1.35-6.22,2.64-9.39,3.78,7.77,3.85,8.38,13.99,7.23,22.37,4.12-2.23,8.18-4.87,12.1-7.64,.41-7.84-2.3-15.54-9.93-18.52Z"/>
      <path class="cls-11" d="M166.71,160.98c-3.04,1.76-6.15,3.38-9.39,4.87,7.1,2.57,10.07,10.07,10.14,17.71,3.72-2.84,7.37-5.74,10.75-8.65,0-6.96-4.87-12.57-11.49-13.92Z"/>
      <path class="cls-12" d="M195.97,136.31c-1.96,2.57-4.12,5.07-6.56,7.5,4.8-.74,9.73,1.01,13.58,4.12,1.49-2.37,2.91-4.87,4.12-7.37-.07-.07-.07-.14-.14-.27-1.35-5.47-6.69-6.49-11.02-3.99Z"/>
      <path class="cls-6" d="M207.6,112.39c-.88,3.18-1.96,6.22-3.18,9.19,3.11-.81,6.29-.07,8.58,1.89,.61-3.04,.95-6.15,1.08-9.26-1.82-1.49-4.12-2.16-6.49-1.82Z"/>
      <path class="cls-7" d="M175.09,155.64c-1.82,1.28-3.72,2.5-5.61,3.65,6.15,1.55,10.75,6.83,11.56,13.11,1.42-1.22,2.77-2.5,4.12-3.65,1.28-1.15,2.57-2.37,3.78-3.58-1.49-6.49-7.37-10.27-13.85-9.53Z"/>
      <path class="cls-19" d="M203.34,124.08c-1.35,2.84-2.84,5.61-4.6,8.31,3.72-.81,7.98,1.01,10.21,4.39,1.42-3.38,2.57-6.89,3.45-10.48-2.1-2.64-5.74-3.65-9.06-2.23Z"/>
      <path class="cls-20" d="M186.92,146.25c-2.77,2.57-5.68,4.93-8.72,7.16,5.88-.27,11.22,3.51,13.18,9.26,3.72-3.92,7.1-8.04,10.07-12.37-3.92-3.58-8.92-4.53-14.53-4.06Z"/>
      <path class="cls-18" d="M214.15,111.24c0-4.19-.47-8.45-1.35-12.84-.2-1.08-1.96-1.08-2.16,0-.68,4.19-1.55,8.18-2.57,12.03,2.1-.41,4.26-.14,6.08,.81Z"/>
      <path class="cls-17" d="M137.06,179.43c.03-4.74-.16-4.67-1.73-4.07-1.09,.42-2.45,1.09-2.57,2.26-1.24,12.41-12.09,20.25-15.76,22.97,5.61,1.08,9.31,.74,14.78-.21,4.06-6.35,5.61-13.31,5.27-20.95Z"/>
      <path class="cls-14" d="M143.19,171.52h0c-2.12,1.3-2.63,1.21-3.4,1.74-.58,.41-.88,1.13-.7,1.81,1.95,7.49,1.78,17.97-1.98,24.35,0,0,0,0,0,0,4.39-1.15,8.65-2.84,12.83-4.93,1.49-8.72,1.08-17.23-6.76-22.98Z"/>
      <g>
        <path class="cls-15" d="M61.62,198.61c26.9-.88,41.42-13.14,49.11-21.87,3.81-4.33,6.81-9.19,9.01-14.57h0c.5,.18,1.02,.52,1.55,1.07,1.55,1.46,6.85,6.04,7.72,10.15,.38,2.07-.61,4.95-.97,6.05-.48,1.48-1.57,5.37-2.96,7.35-1.95,2.78-4.7,6.72-14.53,12.66-16.02,9.68-39.81,7.24-57.97,1.69-2.88-.88-7.94-3.36-7.94-3.36h0c1.53,.25,3.07,.41,4.61,.48,4.59,.2,9.75,.44,12.36,.36Z"/>
        <path class="cls-5" d="M166.73,95.68c-.31-1.08-1.77-1.27-2.39-.34l-7.87,14.46-.06-.06,7.62-17.68c.21-.54,.05-1.15-.39-1.52-.95-.8-2.11-1.41-3.36-1.74-.56-.15-1.15,.08-1.47,.56l-8.34,14.44-.22-.22,5.7-12.59c.4-1.05-.6-2.13-1.66-1.76-4.39,1.56-8.84,5.62-11.79,11.31-.95,1.84-3.96,8.89-4.46,10.73v.02c-.21,.67-.38,1.34-.49,2.01-1.1,6.78-5.86,15.42-5.86,15.42-3.05-2.52-3.99-7.22-7.29-9.24-.56-.3-1.19-.52-1.89-.65,.44,2.97,.83,6.21,1.27,9.95l.13,1.12c.89,10.52-.04,19.98-2.73,28.32,1.63,1.03,3.36,2.19,5.23,3.51,5.4,3.83,9.2-1.03,10.4-1.83,1.08-.73,3.6-2.25,6.79-13.82,.54-1.97,1.94-4.64,3.4-7.12,1.82-2.12,8.45-9.78,10.71-13.07,.89-1.21,1.73-2.79,2.45-4.15,2.94-5.69,7.86-21.57,6.59-26.06Z"/>
      </g>
      <path class="cls-16" d="M7.11,49.46h0c3.52,5.13,3.71,9.51,3.71,9.51,.1,1.44,.12,2.86,.12,4.28,6.51-7.48,13.09-12.26,16.14-14.29-1.24-2.43-2.73-4.84-4.55-7.39-.41-1.57-1.03-3.17-1.88-4.73-2.3-4.22-5.38-7.65-8.7-8.74-.8-.26-1.53,.57-1.21,1.35l5.81,12.81-.1,.08-8.21-13.61c-.25-.35-.69-.51-1.11-.4-.9,.25-1.77,.72-2.49,1.36-.33,.29-.44,.75-.27,1.15l7.03,14.52-7.91-11.95c-.48-.69-1.58-.53-1.79,.29-.88,3.39,.47,7.76,2.77,11.98,.77,1.41,1.67,2.68,2.64,3.79Z"/>
    </g>
  </g>
</svg>