<?xml version="1.0" encoding="UTF-8"?>
<svg id="Layer_2" data-name="Layer 2" xmlns="http://www.w3.org/2000/svg" xmlns:xlink="http://www.w3.org/1999/xlink" viewBox="0 0 162.69 182.24">
  <defs>
    <style>
      .cls-1 {
        fill: none;
      }

      .cls-2 {
        fill: #ee5007;
      }

      .cls-3 {
        fill: #fff;
      }

      .cls-4 {
        fill: #fb9e70;
      }

      .cls-5 {
        fill: #0c0b0b;
      }

      .cls-6 {
        fill: url(#New_Gradient_Swatch_2);
      }

      .cls-7 {
        fill: url(#New_Gradient_Swatch_2-6);
      }

      .cls-8 {
        fill: url(#New_Gradient_Swatch_2-5);
      }

      .cls-9 {
        fill: url(#New_Gradient_Swatch_2-2);
      }

      .cls-10 {
        fill: url(#New_Gradient_Swatch_2-4);
      }

      .cls-11 {
        fill: url(#New_Gradient_Swatch_2-3);
      }

      .cls-12 {
        fill: url(#New_Gradient_Swatch_2-8);
      }

      .cls-13 {
        fill: url(#New_Gradient_Swatch_2-7);
      }
    </style>
    <linearGradient id="New_Gradient_Swatch_2" data-name="New Gradient Swatch 2" x1="28.29" y1="78.3" x2="147.56" y2="78.3" gradientUnits="userSpaceOnUse">
      <stop offset="0" stop-color="#ee5007"/>
      <stop offset=".54" stop-color="#ff7442"/>
      <stop offset=".99" stop-color="#fb9e70"/>
    </linearGradient>
    <linearGradient id="New_Gradient_Swatch_2-2" data-name="New Gradient Swatch 2" x1="-4415.72" y1="2551.37" x2="-4159.41" y2="2551.37" gradientTransform="translate(-2485.27 -4144.58) rotate(-90)" xlink:href="#New_Gradient_Swatch_2"/>
    <linearGradient id="New_Gradient_Swatch_2-3" data-name="New Gradient Swatch 2" x1="45.44" y1="100.12" x2="164.15" y2="100.12" xlink:href="#New_Gradient_Swatch_2"/>
    <linearGradient id="New_Gradient_Swatch_2-4" data-name="New Gradient Swatch 2" x1="26.83" y1="10.64" x2="48.11" y2="10.64" gradientTransform="translate(48.11 -26.83) rotate(90)" xlink:href="#New_Gradient_Swatch_2"/>
    <linearGradient id="New_Gradient_Swatch_2-5" data-name="New Gradient Swatch 2" x1="75.16" y1="16.71" x2="103.51" y2="16.71" gradientTransform="translate(72.63 106.04) rotate(-90)" xlink:href="#New_Gradient_Swatch_2"/>
    <linearGradient id="New_Gradient_Swatch_2-6" data-name="New Gradient Swatch 2" x1="43.76" y1="139.65" x2="162.93" y2="139.65" xlink:href="#New_Gradient_Swatch_2"/>
    <linearGradient id="New_Gradient_Swatch_2-7" data-name="New Gradient Swatch 2" x1="-.72" y1="128.69" x2="46.83" y2="128.69" xlink:href="#New_Gradient_Swatch_2"/>
    <linearGradient id="New_Gradient_Swatch_2-8" data-name="New Gradient Swatch 2" x1="43.11" y1="163.44" x2="123.49" y2="163.44" xlink:href="#New_Gradient_Swatch_2"/>
  </defs>
  <g id="Layer_2-2" data-name="Layer 2">
    <g>
      <path class="cls-6" d="M83.03,35.04c-.21-.42,.07-.92,.54-.93,2.38-.08,8.01-.44,11.74-2.49,5.22-2.88,7.78-6.85,9.35-9.26,0,0,34.73,13.61,38.4,26.98,0,0-1.61,32.1-16.92,49.34,0,0-23.87,35.78-70.54,35.56,0,0-15.01,.89-19.47-10.15-4.46-11.04-7.84-28.51-7.84-28.51,0,0,7.51-2.8,11.56-3.34,5.58-.75,15.77-.75,26.25-2.85,18.24-3.66,29.34-29.87,16.93-54.35Z"/>
      <path class="cls-9" d="M71.53,28.84l-.02-.2c-.39-4.57-.22-8.32,.43-10.73,.14-.54,.3-.95,.34-1.21-3.63,.46-10.42,2.31-12.36,4.21,0,0,.01,0,.02,0,3.87,.77,8.42,4.32,11.59,7.93Z"/>
      <g>
        <path class="cls-1" d="M145.24,57.43c-.29,2.11-.64,4.24-1.05,6.36,.41-2.13,.92-4.26,1.05-6.36Z"/>
        <path class="cls-11" d="M59.47,138.3c-4.53,.11-9.16-.45-12.51-1.71-.38-.14,.98,.8,2.25,1.5,9.89,5.46,22.6,8.89,33.87,8.89,18.02,0,35.74-5.62,46.43-12.36,13.06-8.22,24.89-18.77,31.47-34.96,1.08-2.65,1.95-5.39,1.65-8.24v-.06c-.48-5.41,0-13.31-9.43-29.34-6.01-10.22-6.65-13.1-7.95,.1-1.61,16.37-9.13,29.29-17.08,39.91-14.33,19.14-39.27,35.55-68.69,36.26Z"/>
      </g>
      <g>
        <path class="cls-2" d="M64.24,26.53c3.38,2.07,4.52,5.61,4.52,5.61,0,0,1.57,4.08-.16,8.79-1.73,4.71-5.09,6.26-5.09,6.26,0,0-2.3,1.32-4.83,1.47s-6.63,.02-6.63,.02c0,0-3-.26-7.13,1.17s-7.03,4.21-7.03,4.21c-2.21,1.76-4.44,5.52-7.08,9.22-2.93,4.1-5.86,5.28-5.86,5.28-9.85,4.82-19.41,4.26-19.41,4.26,1.29-1.36,4.98-9.49,8.72-16.16,2.15-3.83,5.91-13.18,13.38-21.7,0,0,17.69-19.98,36.6-8.42Z"/>
        <path class="cls-4" d="M83.95,50c-.43-2.81-2.48-8.71-5.13-12.28-2.01-2.71-4.46-5.31-6.2-6.66,.45,1.35,1.68,5.96-.26,11.25-2.06,5.61-5.98,7.91-6.98,8.42-.65,.36-3.35,1.73-6.45,1.93-.88,.05-2,.08-3.33,.08-1.94,0-3.68-.06-3.68-.06,0,0-.21-.01-.21-.01-.01,0-.11,0-.25,0-.73,0-2.7,.09-5.23,.97-3.19,1.1-5.55,3.3-5.57,3.32l-.12,.12-.15,.12c-1.18,.93-2.78,3.28-4.33,5.55-.64,.93-1.3,1.9-1.98,2.86-3.19,4.47-6.55,6.19-7.43,6.59-.15,.07-.3,.14-.45,.21-2.08,1.2-4.64,2.29-7.69,2.91-.66,.13-1.29,.25-1.91,.36-4.5,1.01-8.21,1.17-10.1,1.17h0c-.76,0-1.17-.03-1.17-.03l-2.09-.13c-.57,2.1,1.27,5.52,1.27,5.52,3.25,5.75,6.69,6.95,13.18,9.57,6.49,2.63,12.65-.28,16.47-1.69,3.82-1.41,6.93-1.42,14.6-1.87s13.48-1.56,13.48-1.56c17.34-3.64,20.24-18.2,21.41-22.78,.74-2.91,.87-10.26,.32-13.86Z"/>
        <path id="left_ear" data-name="left ear" class="cls-10" d="M41.68,0h3.08C46.61,0,48.11,1.5,48.11,3.35v3.08c0,8.19-6.65,14.85-14.85,14.85h-3.08c-1.85,0-3.35-1.5-3.35-3.35v-3.08C26.83,6.65,33.49,0,41.68,0Z" transform="translate(26.83 48.11) rotate(-90)"/>
        <path id="nouse" class="cls-5" d="M3.63,80.29c.39,1.49,1.59,2.08,3.12,1.87,1.52-.21,2.63-1.3,3.5-2.23,.33-.35,.66-1.1,.76-1.57,.3-1.37-.75-1.81-1.48-1.9-1.2-.14-2.74,.37-3.71-.35-.73-.54-1.83-1.21-2.4-.5-.24,.3-.29,1.01-.29,1.63,0,1.25,.23,2,.51,3.05Z"/>
        <path id="mouth" class="cls-5" d="M13.42,84.8c.69-.47,1.41-1.09,2.21-1.81,1.23-1.12-2.23,5.19-4.99,5.64-.82-.54-2-1.25-2.61-1.88,1.93-.2,3.79-.86,5.4-1.95Z"/>
        <path id="right_ear" data-name="right ear" class="cls-8" d="M79.62,2.53h4.11c10.92,0,19.79,8.87,19.79,19.79v4.11c0,2.46-2,4.46-4.46,4.46h-4.11c-10.92,0-19.79-8.87-19.79-19.79V6.99c0-2.46,2-4.46,4.46-4.46Z" transform="translate(106.04 -72.63) rotate(90)"/>
        <g id="eye">
          <path class="cls-5" d="M57.55,63.87c-.14,4.24-3.51,7.83-7.83,7.83s-7.83-3.51-7.83-7.83,3.51-7.65,7.83-7.83c1.49-.06,5.16-.03,6.58,1.38,1.42,1.42,1.32,4.29,1.25,6.45Z"/>
          <circle class="cls-3" cx="48.24" cy="62.02" r="3.92"/>
          <circle class="cls-3" cx="53.4" cy="67.18" r="1.97"/>
        </g>
      </g>
      <path class="cls-7" d="M45.67,139.57s-.02-.01-.02-.02c0,0-.05-.04-.07-.04,0,0,0,0,0,0-.02,0,.01,.03,.01,.03,5.6,20.38,25.49,27.86,39.77,29.77,5.21,.7,8.64,1.04,12.39,1.04,2.65,0,5.46-.17,9.17-.51,.89-.06,.22-.01,5.89-.99,1.94-.33,3.87-.8,5.74-1.39,20.71-6.58,30.38-21.26,32.09-23.84,1.65-2.49,5.47-9.37,6.56-12.18,3.05-7.85,5.11-17.05,4.2-22.49-6.41,13.31-19.49,23.22-26.75,27.96-10.14,6.61-29.43,13.09-45.97,13.88-30.13,1.44-43.05-11.23-43.05-11.23"/>
      <path class="cls-13" d="M46.31,173.54s-8.42-17.88-2.97-38.17c0,0-8.35-.55-12.99-16.42-2.14-7.32-4.94-23.46-4.94-23.46,0,0-6.19,1.35-15.6-3.88,0,0-4.85-2.04-8.11-7.78,0,0-5.38,19.46,3.09,43.5,5.24,14.87,15.01,33.5,41.54,46.2Z"/>
      <path class="cls-12" d="M44.33,144.63s2.84,16.6,27.37,25.72c0,0,13.9,5.52,34.86,3.49,0,0,11.17-1.52,16.06-3.55,0,0-6.25,6.77-21.61,10.48-15.37,3.71-33.77-.84-33.77-.84,0,0-12.26-2.52-17.49-9.58s-5.41-25.72-5.41-25.72Z"/>
    </g>
  </g>
</svg>