<?xml version="1.0" encoding="UTF-8"?>
<svg id="Layer_2" data-name="Layer 2" xmlns="http://www.w3.org/2000/svg" xmlns:xlink="http://www.w3.org/1999/xlink" viewBox="0 0 163.59 162.69">
  <defs>
    <style>
      .cls-1 {
        fill: url(#New_Gradient_Swatch_2);
      }

      .cls-2 {
        fill: url(#New_Gradient_Swatch_2-5);
      }

      .cls-3 {
        fill: url(#New_Gradient_Swatch_2-2);
      }

      .cls-4 {
        fill: url(#New_Gradient_Swatch_2-4);
      }

      .cls-5 {
        fill: url(#New_Gradient_Swatch_2-3);
      }
    </style>
    <linearGradient id="New_Gradient_Swatch_2" data-name="New Gradient Swatch 2" x1="-133.04" y1="-98.35" x2="-14.33" y2="-98.35" gradientTransform="translate(-15.79 -15.79) rotate(-90) scale(1 -1)" gradientUnits="userSpaceOnUse">
      <stop offset="0" stop-color="#ee5007"/>
      <stop offset=".54" stop-color="#ff7442"/>
      <stop offset=".99" stop-color="#fb9e70"/>
    </linearGradient>
    <linearGradient id="New_Gradient_Swatch_2-2" data-name="New Gradient Swatch 2" x1="-134.72" y1="-58.38" x2="-15.55" y2="-58.38" xlink:href="#New_Gradient_Swatch_2"/>
    <linearGradient id="New_Gradient_Swatch_2-3" data-name="New Gradient Swatch 2" x1="-179.2" y1="-91.4" x2="-131.65" y2="-91.4" xlink:href="#New_Gradient_Swatch_2"/>
    <linearGradient id="New_Gradient_Swatch_2-4" data-name="New Gradient Swatch 2" x1="-135.37" y1="-34.59" x2="-54.99" y2="-34.59" xlink:href="#New_Gradient_Swatch_2"/>
    <linearGradient id="New_Gradient_Swatch_2-5" data-name="New Gradient Swatch 2" x1="47.99" y1="77.59" x2="168.12" y2="77.59" gradientTransform="matrix(1, 0, 0, 1, 0, 0)" xlink:href="#New_Gradient_Swatch_2"/>
  </defs>
  <g id="Layer_2-2" data-name="Layer 2">
    <g>
      <path class="cls-1" d="M43.94,103.23c-.11,4.53,.45,9.16,1.71,12.51,.14,.38-.8-.98-1.5-2.25-5.46-9.89-8.89-22.6-8.89-33.87,0-18.02,5.63-35.74,12.36-46.43,8.22-13.06,18.77-24.89,34.96-31.47,2.65-1.08,5.39-1.95,8.24-1.65h.06c5.41,.48,13.31,0,29.34,9.43,10.22,6.01,14.65,5.49,1.47,6.99-14.41,1.65-31.03,9.11-41.65,17.06-19.14,14.33-35.39,40.26-36.1,69.68Z"/>
      <path class="cls-3" d="M42.66,117.02s.01,.02,.02,.02c0,0,.04,.05,.04,.07,0,0,0,0,0,0,0,.02-.03-.01-.03-.01-20.38-5.6-27.86-25.49-29.77-39.77-.7-5.21-1.04-8.64-1.04-12.39,0-2.65,.17-5.46,.51-9.17,.06-.89,.01-.22,.99-5.89,.33-1.94,.8-3.87,1.39-5.74,6.58-20.71,21.26-30.38,23.84-32.09,2.49-1.65,9.37-5.47,12.18-6.56,7.85-3.05,17.05-5.11,22.49-4.2-13.31,6.41-23.22,19.49-27.96,26.75-6.61,10.14-13.09,29.43-13.88,45.97-1.44,30.13,11.23,43.05,11.23,43.05"/>
      <path class="cls-5" d="M98.4,161.01s-19.46,5.38-43.5-3.09c-14.87-5.24-33.5-15.01-46.2-41.54,0,0,17.88,9.42,38.17,3.97,0,0,.66,8.01,16.42,12.99,8.77,2.77,23.46,4.94,23.46,4.94,0,0,24.67,4.24,55.78-1.57,0,0-25.7,20.48-44.13,24.29Z"/>
      <path class="cls-4" d="M37.6,118.37s-16.6-2.84-25.72-27.37c0,0-5.52-13.9-3.49-34.86,0,0,1.52-11.17,3.55-16.06,0,0-6.77,6.25-10.48,21.61-3.71,15.37,.84,33.77,.84,33.77,0,0,2.52,12.26,9.58,17.49,7.06,5.23,25.72,5.41,25.72,5.41Z"/>
      <path class="cls-2" d="M160.56,60.2c-.98-2.85-2.29-6.72-3.94-11-3.26-8.47-10.05-19.78-17.03-25.7-.8-.68-1.65-1.28-2.54-1.79-1.37-.97-2.73-1.8-4.15-2.08-1.49-.3-2.84-.13-5.01,.09-10.82,1.09-21.22,3.74-31.04,8.47-3.83,1.74-7.51,3.83-10.8,6.32-.66,.46-1.32,.93-1.97,1.41-2.5,1.88-4.89,3.91-7.19,6.05-10.34,9.48-29.06,31.31-28.89,65.11,0,0-.85,14.38,9.48,19.17,.21,.11,.42,.22,.64,.32,7.67,3.48,16.56,5.49,25.14,7.12,3.4,.64,3.58,.6,5.41,.89,0,0,45.42,5.51,61.42-7.76,15.47-19.81,15.61-50.98,10.47-66.61Z"/>
    </g>
  </g>
</svg>