<svg width="348" height="125" viewBox="0 0 348 125" fill="none" xmlns="http://www.w3.org/2000/svg">
<rect width="24.8171" height="24.8171" transform="matrix(-0.86601 0.500028 -3.18907e-05 1 65.0957 13.1484)" fill="#EE5007"/>
<rect width="24.8171" height="24.8171" transform="matrix(-0.86601 -0.500028 3.18907e-05 1 43.6025 25.5586)" fill="#FF7442"/>
<rect width="24.8171" height="24.8171" transform="matrix(-0.866041 0.499972 0.866041 0.499972 43.6025 0.742188)" fill="#FB9E70"/>
<rect width="24.8171" height="24.8171" transform="matrix(3.19859e-05 1 0.86601 0.500028 22.1077 37.9688)" fill="#FF7442"/>
<rect width="24.8171" height="24.8171" transform="matrix(-0.866041 0.499973 0.866041 0.499972 22.1077 62.7812)" fill="#FB9E70"/>
<rect width="24.8171" height="24.8171" transform="matrix(-3.17834e-05 1 0.866009 -0.500028 0.616455 50.3789)" fill="#EE5007"/>
<rect width="24.8171" height="24.8171" transform="matrix(-0.86601 0.500028 -3.19781e-05 1 65.0979 87.6016)" fill="#EE5007"/>
<rect width="24.8171" height="24.8171" transform="matrix(-0.866009 -0.500028 3.18033e-05 1 43.6047 100.012)" fill="#FF7442"/>
<rect width="24.8171" height="24.8171" transform="matrix(-0.866041 0.499972 0.866041 0.499973 43.6047 75.1953)" fill="#FB9E70"/>
<rect width="24.8171" height="24.8171" transform="matrix(0.86601 -0.500028 3.18907e-05 -1 65.0923 112.43)" fill="#EE5007"/>
<rect width="24.8171" height="24.8171" transform="matrix(0.86601 0.500028 -3.18907e-05 -1 86.5854 100.02)" fill="#FF7442"/>
<rect width="24.8171" height="24.8171" transform="matrix(0.866041 -0.499972 -0.866041 -0.499972 86.5854 124.836)" fill="#FB9E70"/>
<rect width="24.8171" height="24.8171" transform="matrix(-0.86601 0.500028 -3.19781e-05 1 129.573 50.375)" fill="#EE5007"/>
<rect width="24.8171" height="24.8171" transform="matrix(-0.866009 -0.500028 3.18033e-05 1 108.079 62.7852)" fill="#FF7442"/>
<rect width="24.8171" height="24.8171" transform="matrix(-0.866041 0.499972 0.866041 0.499973 108.079 37.9688)" fill="#FB9E70"/>
<rect width="24.8171" height="24.8171" transform="matrix(0.86601 -0.500028 3.18907e-05 -1 65.094 37.9766)" fill="#EE5007"/>
<rect width="24.8171" height="24.8171" transform="matrix(0.86601 0.500028 -3.18907e-05 -1 86.5872 25.5664)" fill="#FF7442"/>
<rect width="24.8171" height="24.8171" transform="matrix(0.866041 -0.499972 -0.866041 -0.499972 86.5872 50.3828)" fill="#FB9E70"/>
<path d="M189.833 83.2891L175.31 65.5066V83.2891H167.305V43.3787H175.31V61.2754L189.833 43.3787H199.496L183.029 63.1623L199.954 83.2891H189.833ZM203.161 67.3363C203.161 64.1344 203.79 61.2945 205.047 58.8168C206.344 56.3391 208.078 54.4331 210.251 53.099C212.462 51.7648 214.92 51.0977 217.627 51.0977C219.99 51.0977 222.048 51.5742 223.802 52.5272C225.594 53.4801 227.023 54.6809 228.09 56.1294V51.6123H236.152V83.2891H228.09V78.6576C227.061 80.1443 225.632 81.3831 223.802 82.3742C222.01 83.3272 219.933 83.8037 217.569 83.8037C214.901 83.8037 212.462 83.1175 210.251 81.7453C208.078 80.373 206.344 78.448 205.047 75.9702C203.79 73.4544 203.161 70.5764 203.161 67.3363ZM228.09 67.4507C228.09 65.5066 227.709 63.8485 226.947 62.4762C226.184 61.0658 225.155 59.9985 223.859 59.2742C222.563 58.5118 221.172 58.1306 219.685 58.1306C218.198 58.1306 216.826 58.4928 215.568 59.217C214.31 59.9413 213.281 61.0086 212.481 62.419C211.718 63.7913 211.337 65.4304 211.337 67.3363C211.337 69.2423 211.718 70.9195 212.481 72.368C213.281 73.7784 214.31 74.8648 215.568 75.6272C216.864 76.3896 218.237 76.7707 219.685 76.7707C221.172 76.7707 222.563 76.4086 223.859 75.6844C225.155 74.922 226.184 73.8547 226.947 72.4824C227.709 71.072 228.09 69.3948 228.09 67.4507ZM248.03 47.8386C246.62 47.8386 245.438 47.4002 244.485 46.5235C243.57 45.6086 243.113 44.4841 243.113 43.1499C243.113 41.8158 243.57 40.7103 244.485 39.8336C245.438 38.9188 246.62 38.4613 248.03 38.4613C249.441 38.4613 250.603 38.9188 251.518 39.8336C252.471 40.7103 252.948 41.8158 252.948 43.1499C252.948 44.4841 252.471 45.6086 251.518 46.5235C250.603 47.4002 249.441 47.8386 248.03 47.8386ZM251.976 51.6123V83.2891H243.971V51.6123H251.976ZM267.889 56.5296C268.919 54.8524 270.253 53.5373 271.892 52.5844C273.569 51.6314 275.475 51.1549 277.61 51.1549V59.5601H275.494C272.978 59.5601 271.072 60.1509 269.776 61.3326C268.518 62.5143 267.889 64.5727 267.889 67.5079V83.2891H259.885V51.6123H267.889V56.5296ZM297.067 83.8037C294.018 83.8037 291.273 83.1366 288.834 81.8024C286.394 80.4302 284.469 78.5052 283.059 76.0274C281.686 73.5497 281 70.6908 281 67.4507C281 64.2106 281.705 61.3517 283.116 58.874C284.564 56.3962 286.527 54.4903 289.005 53.1561C291.483 51.7839 294.247 51.0977 297.296 51.0977C300.346 51.0977 303.109 51.7839 305.587 53.1561C308.065 54.4903 310.009 56.3962 311.419 58.874C312.868 61.3517 313.592 64.2106 313.592 67.4507C313.592 70.6908 312.849 73.5497 311.362 76.0274C309.913 78.5052 307.931 80.4302 305.415 81.8024C302.938 83.1366 300.155 83.8037 297.067 83.8037ZM297.067 76.8279C298.516 76.8279 299.869 76.4849 301.127 75.7987C302.423 75.0745 303.452 74.0071 304.215 72.5967C304.977 71.1863 305.358 69.471 305.358 67.4507C305.358 64.4393 304.558 62.1331 302.957 60.5321C301.394 58.893 299.469 58.0735 297.182 58.0735C294.895 58.0735 292.97 58.893 291.407 60.5321C289.882 62.1331 289.12 64.4393 289.12 67.4507C289.12 70.4621 289.863 72.7873 291.35 74.4264C292.874 76.0274 294.78 76.8279 297.067 76.8279ZM331.586 83.8037C328.993 83.8037 326.668 83.3462 324.61 82.4314C322.551 81.4784 320.912 80.2014 319.692 78.6004C318.511 76.9995 317.863 75.2269 317.748 73.2829H325.811C325.963 74.5027 326.554 75.5128 327.583 76.3133C328.65 77.1138 329.966 77.5141 331.528 77.5141C333.053 77.5141 334.235 77.2091 335.073 76.5992C335.95 75.9893 336.389 75.2079 336.389 74.2549C336.389 73.2257 335.855 72.4633 334.788 71.9678C333.758 71.4341 332.1 70.8623 329.813 70.2524C327.45 69.6806 325.506 69.0898 323.981 68.4799C322.494 67.87 321.198 66.9361 320.093 65.6782C319.025 64.4202 318.492 62.724 318.492 60.5893C318.492 58.8358 318.987 57.2348 319.978 55.7863C321.008 54.3378 322.456 53.1943 324.324 52.3556C326.23 51.517 328.46 51.0977 331.014 51.0977C334.788 51.0977 337.799 52.0507 340.048 53.9566C342.297 55.8245 343.536 58.3594 343.765 61.5613H336.103C335.988 60.3034 335.455 59.3123 334.502 58.5881C333.587 57.8257 332.348 57.4445 330.785 57.4445C329.337 57.4445 328.212 57.7113 327.412 58.245C326.649 58.7787 326.268 59.522 326.268 60.4749C326.268 61.5423 326.802 62.3618 327.869 62.9336C328.936 63.4673 330.594 64.02 332.843 64.5918C335.131 65.1636 337.017 65.7544 338.504 66.3643C339.991 66.9742 341.268 67.9272 342.335 69.2232C343.441 70.4811 344.012 72.1584 344.05 74.2549C344.05 76.0846 343.536 77.7237 342.507 79.1722C341.516 80.6207 340.067 81.7643 338.161 82.6029C336.293 83.4034 334.101 83.8037 331.586 83.8037Z" fill="white"/>
</svg>
